<?xml version="1.0" encoding="utf-8"?>
<!-- Generator: Adobe Illustrator 21.1.0, SVG Export Plug-In . SVG Version: 6.00 Build 0)  -->
<svg version="1.1" id="Capa_1" xmlns="http://www.w3.org/2000/svg" xmlns:xlink="http://www.w3.org/1999/xlink" x="0px" y="0px"
	 viewBox="0 0 451.5 512" style="enable-background:new 0 0 451.5 512;" xml:space="preserve">
<g>
	<path d="M0,0l41.1,460.8L225.4,512l184.9-51.3L451.5,0H0z M375.1,431.4l-148.6,41.2v0.2l-0.4-0.1l-0.4,0.1v-0.2L77.1,431.4L42,37.7
		h368.2L375.1,431.4z M295.1,265.1l-6.5,73.3l-63,17l-0.1,0l-62.9-17l-4-45.1h-56.7l7.9,88.8l115.8,32.1h0.1h0.1l0.1,0l115.7-32.1
		l15.5-173.5h-206l-5.2-57.9h216.1h0.2l5.1-56.5H84l15.2,170.9L295.1,265.1L295.1,265.1z"/>
</g>
</svg>
