<svg xmlns="http://www.w3.org/2000/svg" viewBox="0 0 3877.79 1501.23">

  <title>background_montagneRusse1</title>

  <path d="M3877.62,1323.27c-17.17,3.8-34-3.9-51.09-1.53-11.73,1.63-23-2.22-34.53-2.32-5.59-.05-6.91-2.7-9.34-13.91,10.43,1.06,20.79,2.32,31.18,3.12,19.85,1.52,39.72,2.73,59.56,4.23,1.45.11,2.81,1.53,4.21,2.34v-14.14c-2.37-1.13-4.63-2.15-7.48-2.09-31.24.68-62.23-3.52-93.19-6.41q-46.95-4.39-93.79-11.17c-25.31-3.63-50.71-7-76-10.86-31.23-4.76-62.28-10.79-93.25-17.08-38-7.72-76.08-15.43-113.72-24.78-21.27-5.28-42.35-11.88-63.49-17.7-24.68-6.8-49.48-13.26-73.93-20.87-30.9-9.63-61.56-20-92.26-30.3-7.71-2.58-12.26-8.07-15.08-16-12.5-35.23-25-70.47-39.42-105-1.7-4.07-1.58-7.84,3.72-9.81,3.54-1.31,7.76-2.36,8.5-7.15-.58-.53-1.09-1.33-1.46-1.27-12.6,2-21.31-3.79-29.22-13-7.62-8.92-16.49-16.79-24.86-25.08-4.39-4.36-5.6-7.85-1.52-14.2a793,793,0,0,0,100.73-230.13c3.63-14,5.79-28.39,8.61-42.6.13-.65-.23-1.63.12-2,8.88-8.83,5.93-19.66,5.8-30.32a261.35,261.35,0,0,1,2.25-34.9c2.29-18.68,2.3-37.4,1.9-56.12-.23-11-1.63-21.93-2.38-32.9-.18-2.61-3.82-6.26.67-7.62,3.5-1.06,8.09-2.1,11.27,1.32q21.21,22.81,42.19,45.84c7.87,8.59,15.52,17.39,23.51,25.86,27.14,28.77,54.45,57.38,81.57,86.17q44.82,47.6,89.4,95.41,44.34,47.39,88.62,94.83,74.59,79.73,149.22,159.43t149.19,159.38c17.78,19,34.52,39.07,53.76,56.73V1194c-7.33-3.67-12.19-10.22-17.5-16-25.84-28.06-52.36-55.46-78.82-82.93q-47.41-49.22-94.45-98.8c-27.09-28.7-56.07-55.47-83.09-84.18-31.86-33.83-63.12-68.23-94.64-102.37-.91-1-1.87-1.93-2.81-2.9q-38.65-39.61-77.27-79.24c-2.19-2.25-5.69-4-4.21-8.71,3.55-.61,5.84,1.9,8.26,3.89,45,37,89.8,74.14,134.87,111s90.93,72.21,134.81,110.14c26.77,23.14,54.26,45.34,81.35,68.06,28.65,24,57.89,47.35,86.85,71,2.31,1.89,4.44,4,6.65,6v-56.55c-5.9.76-7.55-4.87-11-7.59q-38.42-30.14-76.48-60.74c-21.83-17.5-43.43-35.27-65.28-52.74-25.38-20.3-51-40.31-76.35-60.64-19-15.25-37.65-31-56.68-46.19-25.12-20.1-50.56-39.79-75.67-59.9s-50-40.75-75.19-60.86c-35.16-28.06-70.57-55.8-105.8-83.78q-49.4-39.22-98.61-78.66c-1.67-1.34-4.89-3-2.36-5.48,9.69-9.39,1.75-8.66-4.75-8.41-3,.12-5.11-1.5-7.29-2.66-13.17-7-26.18-14.37-39.21-21.68-6.2-3.47-7.07-9.18-5.49-15.31.64-2.47,3.28-5.45-.24-6.6-5.57-1.83-4.71-6.93-6.18-10.48-4.95-11.94-8.53-24.45-13.69-36.29-2.35-5.4-2.92-9.55.47-14.35s2-8.13-3.88-7.65-7.52-2.58-9.82-7a379.46,379.46,0,0,0-19.36-33.82c-3.53-5.39-5.82-9.12.35-13.89,1.5-1.16,3.73-3.81,1.72-6.42-1.36-1.77-3.14-4.67-5.55-3.5-11.93,5.82-15.39-3.77-20.67-10.65-5.81-7.57-11.48-15.39-18.26-22-5.73-5.61-5.1-10.69-2.25-16.9.85-1.86,5.45-2.61,2-6.09-2.31-2.31-4.11-2.16-7.46-1.76-5.31.62-11.51,6.85-16.46.12-8.27-11.22-21.64-16.63-30.21-27.67-4.06-5.23-5.7-9.08-2.46-14.84,1.39-2.48,5.26-5,1.9-8.15-2.69-2.49-5.87-1.14-9.17.4-7,3.25-14.73,6.12-21.36.16-6.46-5.81-14.42-8.47-21.62-12.71-4.54-2.67-7.7-7-12.08-10.13-6-4.31-1.23-11,.28-16.39.69-2.45,1.8-4.11-.59-5.92-2.16-1.63-4.24-1.52-6.37.15a80.24,80.24,0,0,1-7.88,5.84c-4.26,2.57-7.48,3.23-13.05,0-8.94-5.22-18-10.75-28.74-13.19-13.26-3-15.5-8.48-12.82-22.08.36-1.82.24-4.79-.86-5.61-1.86-1.38-4.34-.58-6.11,1.52s-3.94,3.68-5.64,5.74c-3.6,4.36-6.43,5.79-12.87,3a265.89,265.89,0,0,0-43.06-14.41c-8.28-2-9.31-6.59-7.77-12.66.94-3.7,3.32-7.53-1.08-9.32-5.14-2.09-5.7,3.9-6.82,6.56-3.17,7.52-7.15,9.83-15.45,7.15-16.79-5.43-34.23-8.33-51.77-10.18-3.87-.41-4.63-1.84-3.6-5a71.76,71.76,0,0,1,2.75-7.27c1-2.21,2.22-4.69-.82-5.79a4.38,4.38,0,0,0-6.07,3.62c-.33,3-1.78,5.76-2,8.53-.35,4.21-3.06,4.71-5.33,3.66-9.95-4.58-22.23,2-31.18-6.7-1.49-1.45-2.19.05-3.08.76-5.4,4.28-11.75,2.24-17.38,1.67s-12.55-2.28-10-11.35c.79-2.85-.61-5.95-3.54-6.12-3.81-.23-4.61,3-4.45,6.37.38,7.89-3.7,9.94-11.06,9.61-14-.62-28,1.57-41.87,2.55-8.3.58-12.75,1.26-13.74-7.91-.34-3.16-2.1-4.94-5.26-4.82-4.69.17-2.68,4-2.68,6.09,0,5.95-2.29,9.13-8.49,10.1-15.47,2.43-31.05,4.61-46.2,8.43-5,1.26-6.33.16-7.67-3.3-1-2.61-1.93-5.6-5.09-5-2.89.58-3.38,3.62-3.61,6.46-.36,4.55-2.35,6.88-7.41,8.39-13.91,4.16-28.19,7.72-41,14.62-6.56,3.53-12.39-7.32-14.66-2.33-2.64,5.78-5,10.07-10.54,12.9-10.39,5.32-21.3,10-30.8,16.58-5.14,3.59-12.6,2-15.41,6.4-3.48,5.46-8.51,8-13.13,11.38-12.45,9.18-24.87,18.42-36.08,29.08-33.19,31.6-59.77,67.87-77.08,110.56-11,27-18.16,55.18-19.94,84.23-2.09,34.15.28,68.18,10,101.26,1.94,6.61.61,11.2-4.33,15.34-6,5-9.69,12.06-16.18,17.1-5,3.91-6.14,11.38-5.46,19.84.85,10.69-4.75,21.92-7.67,32.89q-17.55,65.81-35.16,131.6c-10.5,39.51-20.82,79.07-31.32,118.59q-18.6,70.06-37.36,140.08-15.17,56.89-30.31,113.79-18.16,68.17-36.33,136.35c-10.77,40.44-21.64,80.85-32.17,121.35-1.53,5.86-4.15,7.43-10.15,7.62-35.91,1.17-71.68-2.92-107.56-2.21a28.72,28.72,0,0,1-3,0c-31-2.67-62-5.29-92.94-8.05-13.81-1.23-27.66-2.29-41.38-4.23-20.74-2.93-41.3-7.18-62.09-9.56-7.91-.91-11.23-4.57-12-11-2.49-19.82-6.78-39.31-10.11-59-6.51-38.41-12-77-18.44-115.42-6.33-37.7-13.6-75.24-20-112.93-5.75-33.88-10.68-67.91-16.36-101.8-5.07-30.29-10.87-60.47-16-90.75-5-29.7-9.32-59.51-14.32-89.2-5.1-30.29-11.16-60.42-15.89-90.77-4.64-29.76-10.33-59.33-14.6-89.16-5-34.6-11.79-68.93-17.86-103.37-4-22.52-9.06-44.91-11.64-67.59-1.53-13.44-7.28-26.58-3-40.93,1.55-5.15.74-15.63-4.14-17.23-8.3-2.72-11.91-9.16-17.31-14.16-4.09-3.78-4.18-9-2-13.84,5.37-11.86,9.14-24.22,12.39-36.77,6.71-26,13-52.21,6.28-79.09-3.46-13.94-3.3-28-4-42a46.87,46.87,0,0,0-2-12.78c-18.5-55.11-55.26-92.9-108.54-115.48-7.5-3.18-17.88-3.78-20.16-14.86-.22-1.07-4.38-2.51-4.59-2.23-7.62,10.38-16.24,1.83-24.14,1.06-9.25-.9-17.35-4.77-20.73-14.68-2.09-6.15-5.08-3.18-8.06-.73-3.8,3.13-6.09,8.31-11.26,9.49-12.75,2.9-30-4.83-37.71-16.43-3-4.59-6.09-6.41-8.93.28-6.56,15.47-20,16.42-34.12,16.28-9-.09-15.16-4.32-19.58-11.94-1.31-2.25-.74-6.36-5-6.25-4.59.13-4.6,3.69-5.37,7-2.86,12.36-9.36,20.32-23.49,19.4-3.09-.2-6.49,1-9.43,2.27-10.32,4.49-16.44-1.36-22.24-8.47-2.14-2.63-2-7.94-7.69-6.52-6.26,1.56-3.37,6.63-3.25,9.86.38,10.6-2.09,17.72-14.45,19.17-6.91.81-13.56,4.23-20.19,6.85-8.78,3.47-15.89,1.28-20.86-6.89a38.62,38.62,0,0,0-3-5c-1.34-1.6-2.33-3.4-5.52-1.87-3,1.43-3.71,3.87-2.5,5.32,3.3,4,.61,9,3.47,13.17,2.14,3.09,1,6.19-3.31,8.36-13.59,6.8-28.46,11.05-40.9,20.14-3,2.19-4.6.7-6.38-1.42-3.6-4.29-7.27-8.52-10.85-12.83-1.74-2.1-4.05-2.88-6.09-1.33-1.77,1.34-.85,3.54.07,5.45,1.95,4.06,3.9,8.72,6.45,11.73,4.56,5.36,1.08,6.27-2.25,8.39-13.72,8.73-27.47,17.41-41.06,26.34-3.79,2.49-5.47,1.58-9.29-1-4.76-3.16-6-8.63-10.5-11.46-1.82-1.14-3-2.47-5.1-.56-2.29,2.09-2.17,3.76.12,5.76,5.05,4.41,10,8.95,15.14,13.6-7.26,4.86-13.24,8.79-19.12,12.86-1.36.94-3,2.15-3.47,3.58-1.76,5.65-9.85-.68-10.4,5.22-.75,8-8.5,8.69-12.6,13-6.58,6.89-10.5-3.33-16-4.69-4-1-7.17-9.75-11.74-2.8-3.35,5.1,4.61,6,6.19,9.1,2.14,4.21,11.17,8.33,4.19,13.84a195.51,195.51,0,0,0-24.59,23.44c-7.41,8.3-14,12.23-24.62,5.23-2.9-1.91-9.23-5.9-12.3-.38-2.09,3.76,4.72,5.38,5.91,8.76,1.71,4.86,10.3,8.55,4,14.89-9.4,9.41-16.82,20.39-25.27,30.53-2,2.43-4.21,3-5.62,2.19-4.86-2.86-10.45-.73-15.37-3-2.75-1.26-5.84-2.58-8.09,2s1.6,5.3,3.43,6.75c8.51,6.71,9.66,12.71,3.75,21.14A79.42,79.42,0,0,0,802,300.53c-5.63,11.62-12.6,20.55-27.66,17.16-2.2-.5-5.4-1.79-7.3,2.76-2,4.76,1.88,5.43,3.52,6.89,7.65,6.8,9,14,3,22.5a24.77,24.77,0,0,0-3.59,6.93c-3.59,12.15-8,23.07-24,21.43-2.58-.27-4.25,1.58-4.74,4.19-.45,2.41,1.07,3,2.91,4.27,7.67,5.11,10.33,11.85,5.64,20.64-1.34,2.52-1.57,5.61-2.56,8.35-3.46,9.61-1.17,23.23-17.49,23.87-2.94.12-4.44,5.88-1.43,7.11,12.09,4.89,7.22,14.13,6.83,22.38-.62,12.86-5.57,22.7-17.94,28.32s-20.21,19.61-36.9,20.45l9.24,6.1c-2.8,2.69-4.63,4.2-6.18,6-23.58,26.9-47.28,53.7-70.61,80.82q-14.59,17-29.49,33.65c-21.57,24.19-42.36,49.07-63.69,73.48-16.38,18.74-33.2,37.09-49.61,55.8-22.48,25.63-44.72,51.48-67.16,77.15-15.28,17.47-30.79,34.74-46.07,52.21q-33.66,38.5-67.1,77.19c-11.45,13.24-22.1,27.23-34.22,39.81-6.74,7-11.35,16.55-21,20.49-20.46,8.38-42.11,12.77-63.4,18.4-14.77,3.91-29.84,6.37-44.62,10-10.38,2.55-20.56,5.94-31.09,8.11-31.82,6.57-63.58,13.4-95.37,20.13v12.12c4.58-.7,8.95-1.29,4.53,5.5-1.46,2.24-1,5.76-4.53,6.61v34.33a15.72,15.72,0,0,1,4-.39c4.68.73,10.26-5,13.15-1.33,4.4,5.66,10.25,10.07,13.78,16.6,1.94,3.59.56,5.86-1.7,5.64-10.1-1-19.23,4.66-29.2,3.72v30.29c34.46-5.09,68.34-13.11,104.19-20.78-7.41,10.89-13.68,20.9-20.9,30.2-2,2.55-6.86,1.39-10.48,1-4.64,2.54-3.53,5.08,0,7.63-.66,7.41-7.4,10.52-11.46,15.28C41.25,1267,20.51,1290,0,1313.17v171.67C0,1501,0,1501,16.16,1501c2-6.78,5.82-12.63,9.8-18.37h0c11.25-25.34,24.52-49.67,37.46-74.16q26.31-49.79,52.7-99.54c10.57-19.95,21.22-39.86,31.74-59.83,5.11-9.7,13-14.07,23.91-13.33,2.48.17,5.19,1.38,7.44-1-16.18-6.52-16.19-6.52-12.18-24.47,1.49-6.68,4.06-13.29,4.41-20,.93-17.89,13.45-20.09,27.28-23.48,31.28-7.66,62.17-16.92,93.23-25.45,1.51-.41,3.23-.05,5.72-.05-4.38,12.13-12.27,21.21-18.37,31.23-14.15,23.24-29.06,46-43.72,68.93-3.07,4.8-5.7,10-13.21,5.38-2.83-1.73-6.75-.08-9.75,3.5a2.81,2.81,0,0,0,.07.32h16.43L70.69,1501h44.43c2.84-11,10.14-19.81,15.95-29.11q89.87-143.91,180.56-287.3c11.89-18.9,23.58-37.92,35.38-56.87a10.34,10.34,0,0,1,6.49-5.15c21.5-6.53,42.36-15.87,64.23-20.28,21.49-4.34,39.32-17.94,61-20.82-1.71,15.43-9.92,22.25-26.34,18.52,6.19,5.46,12.57,7.44,20,8.7-8.9,19.93-17.53,39.5-26.36,59q-41.67,91.86-83.46,183.67-33.92,74.8-67.66,149.68H371.6q26.7-62.42,53.42-124.83,31-72.21,62.1-144.37c14.6-34.08,29.4-68.08,43.24-102.46,4-9.86,9-13.66,19.09-10.63,2.57.77,5.13,1.13,7.65-.07.07-.77.3-1.85.16-1.9-20.21-7.24-12.31-23.16-11.12-36.75.52-5.89.36-11.78,1.34-17.77,1.25-7.67,5.51-9.41,11.15-11.62,19.11-7.47,38.23-15,57.12-23,4.48-1.9,7.77-3.22,12.43-.34l.42.23c3.16-1.2,6.2-2.56,9.2-4a10.11,10.11,0,0,0,.16-1.08c.44-5,3.74-5.85,6.93-7.27,22.37-9.89,44.87-19.5,67.13-29.65,4.72-2.16,8.22-3.24,13.28-.5s10.36,1.67,9.7-6c-.35-4,2-5.16,4.59-6.43,23.08-11.09,46.26-22,69.21-33.35,4.24-2.09,6.84-1.75,10.79.69,5.63,3.48,10,1.55,10.41-5.7.2-3.22-1-7,3.73-7.84,4.22-.75,4.18,3.68,5.53,5.63,7.48,10.84,14.26,22.16,21.45,33.2,1.61,2.48,2.72,4.58.42,7.13-11.54,12.81-22.76,25.94-34.76,38.3-4.71,4.85-12.27,0-18.16,2.6-1.33,3.24,1.65,4.77,3.24,5.22,12,3.4,10.05,11.74,6.7,19.7-9.45,22.45-18.45,45.08-26.21,68.16-5.49,16.31-9.78,33.2-15.84,49.12-9.54,25.05-17,50.74-26.24,75.87-26.51,72.39-52.24,145.07-78.34,217.61-6.27,17.43-12.79,34.76-19.2,52.14H719c12.94-52.63,32.94-103,49.63-154.43,17.54-54,36.17-107.71,54.3-161.55,15.72-46.69,31.6-93.32,46.94-140.13,2.84-8.68,6.55-14.53,16.44-14.16-3.77-7.37-6.66-14.63,2.5-20.41,9.56,2.73,13.1,11.79,18.87,18.36,12.93,14.74,24.45,30.81,38.29,44.59,5.24,5.22,4.71,8.12,3,13.47q-40.33,128.54-80.43,257.15c-13.77,44.2-27.22,88.51-41,132.7-2.6,8.32-6.35,16.28-9.56,24.41h72.71c4.25-19.29,10.62-38,16.09-56.94q21.41-74.19,42.47-148.48c11.65-41.18,23-82.44,34.49-123.65,3.75-13.44,7.62-26.86,11.46-40.28,1.76-6.14,4.14-4.84,8-1.26,16.41,15.27,33,30.3,49.72,45.29,29.65,26.67,62.4,49.27,95.11,71.88,4.28,3,4.69,3.76,1.71,8.33-5.8,8.91-10.41,18.65-15,28.29-5.28,11.09-10,22.51-25.79,18.63l0,.08c.13,1.86,0,2.89.27,3.06,3.35,1.81,6.61,4.08,10.22,5.06,8.62,2.35-.28,6.57.92,10.15.82,2.43-.89,7.46-1.82,11.24-12.58,51.38-25.4,102.7-37.57,154.17-1.08,4.57-3,9.41-2.39,14.44H1139c-.81-15.57,5-30,8.08-44.87,9.1-44.44,19.77-88.57,28.63-133.06,2-10,8.39-7.37,15.94-9a1.6,1.6,0,0,0,0-.23c-9.84-3-9.3-8.21-6.47-14.68,2.39-5.47,3.88-11.32,5.84-17,1.81-5.23,5.86-7.19,10.24-4.25,22.22,14.9,46.47,26.19,69.47,39.68.92.54,1.17,2.21,1.73,3.36,40.81,20.38,82.44,38.94,124.64,56.21,7.21,2.95,14.41,6.2,21.93,8,7.28,1.74,7.37,5.24,5.25,11-5.27,14.32-10.49,28.66-14.18,43.5-2,8.17-10.06,2.53-14.52,6.3.65.9,1.45,2.81,2.07,2.76,12.9-1.13,9.41,7.78,8.44,14.31-1.88,12.62-5.55,25-4.54,38h56.55c1.51-12.08,3.8-24.12,4.26-36.24.25-6.62,2.81-9.91,7.86-11.66a24.27,24.27,0,0,0,.71-2.56c-7-3.42-5-9.67-3.26-16.12,2.33-8.48,4.24-17.07,6.08-25.67,1-4.68,3-2.43,5.67-1.62q34.07,10.26,68.3,20c13.77,3.89,27.58,7.72,41.58,10.59,5.43,1.11,7.76,3.78,8.14,8.3,1.55,18.31,2.73,36.65,4,55H1652c-1.41-12.51-2.51-25.06-4.32-37.51-1.54-10.56-.51-10.54,10-10,8.94.46,10.94,3,11.59,11.6.91,12,4.8,23.71,4.94,35.91h44.43c-1.6-10.44-2.69-21-5.06-31.25-1-4.14-1.14-5.65,3.29-5.31,11.77.9,23.32,3.61,35.21,3.95,4.36.12,6.79,4.49,5.28,8.89-2.69,7.8-1.44,15.84-2.37,23.73h48.47c3.32-5.09,2.92-10.87,2.37-16.41-.67-6.75,1.91-9.59,8.44-8.57,29,4.51,58.49,4.17,87.59,8a61,61,0,0,0,9.05.07c20.34-.41,40.62.75,60.92,1.81,15.64.82,15.68.16,13.39,15.13h44.43c3.44-17.19,3.44-16.92,20.29-17.3,11.51-.26,23.11,1.73,34.54-1.73,3.59-1.09,7.25-.67,6.87,5.18-.3,4.58.56,9.23.9,13.85h50.49a39.93,39.93,0,0,0-.83-5.78c-4-13.73-2.16-15.15,11.23-16.7,19.53-2.27,39.07-4.89,58.56-7.32,26.37-3.29,52.29-8.65,78.37-13.26,41.09-7.25,81.55-17.39,121.78-28.37,16.3-4.45,32.63-9,48.52-14.65,5.31-1.89,7,0,8,3.5,3.09,10.26,5.52,20.71,8.4,31,1.77,6.35-3.42,8-8.18,11.64a5,5,0,0,0,.22,1.12c8.13.3,10.52,3.88,11.33,11.47,1,9.05,2.94,18.14,3.87,27.31h58.57c-1.74-9.65-2.55-19.41-5.44-28.93-2.23-7.35-.71-14.36,9.65-17.51-12.27.64-15.78-5.28-18-15-3-12.93-8.1-25.37-12.57-37.93-1.65-4.65-1.13-7.09,4.06-8.92,11.37-4,22.38-9,33.72-13.15,4.48-1.62,9.11-4.42,14.21-1.77,2.22-.92,4.37-2,6.5-3,2.59-8.61,11.93-8.25,18-11.47,14.94-8,31-13.84,46.16-21.4,5.86-2.92,7.48.1,8.27,4q15.41,76,30.43,152.1c.2,1,.24,2,.35,3h54.53c-7.1-33.47-14.1-67-21.35-100.41-3.55-16.34-8-32.49-11.23-48.89-2.15-10.89-2.07-22.16-6.68-32.64-1.34-3,.07-5.78,3.94-7.81,24.7-13,48.42-27.66,71.63-43.12,4.87-3.24,6.9-2.28,9,2.35,3.23,7.16,6.5,14.3,9.93,21.36,3.59,7.38-3.95,6.57-6.66,9.3,1.53,3.68,6.71-.69,8,3.6,2.47.94,4.88.37,6,4.77,15,61,30.57,121.9,46,182.82.78,3.07-.38,5.87-1.43,8.66h64.63c-2.9-19.52-9.73-38-14.62-57-10.62-41.27-22-82.36-33.05-123.52-.93-3.47-1.48-7.11-2.88-10.39-3.08-7.22-3-12.86,6.14-14.72,2-.41,3-1.28,2.88-3.26a2.07,2.07,0,0,0-2.71-2.07c-13.29,3.12-16.24-6.92-20.93-15.66-6.48-12.06-13.73-23.73-21-35.35-2.09-3.35-1.56-4,1.65-6.41q33.75-25.7,65.91-53.42c7.46-6.45,16.44-11.26,22.91-19,1.94-2.31,3.44-1.59,5.74-.67,25.82,10.38,50.8,22.55,75.83,34.66q20.72,10,42,18.83a20.53,20.53,0,0,1,7.91,5.23c2.69,2.92,5.06,6.85,10.82,3.71,2.18-1.19,6.67,1.55,10,2.82,13.68,5.23,27.16,11.06,41.06,15.61,4.18,1.37,4.85,4,5.79,6.7q26.38,76.25,52.47,152.59c10.23,29.9,20.14,59.91,30.62,89.72,1.38,3.92,1.53,7.74,2.25,11.61h94.92c-4.81-12.34-9.78-24.63-14.4-37-17.32-46.52-34.7-93-51.67-139.66-4.53-12.44-7.74-25.36-11.48-38.08-2-6.84,3.64-4.43,5.7-3.83,7.48,2.16,14.66,5.3,22.08,7.69,63.81,20.55,128.33,38.74,193.57,54.06q70.78,16.62,142.54,29.16c36,6.23,72.1,12,108.2,17.54,24.83,3.85,50,5.45,75,8.45,13.49,1.62,26.88,4.16,40.54,3.92,5.74-.1,6.8,4.05,8.5,8.12,5.91,14.22,8.84,29.34,12.22,44.18,1.66,7.29,8,8.94,10.59,14.45,5,10.52,10.67,20.72,16.06,31,8.42,0,16.87-.49,25.23.16,6.09.47,7.28-1.2,7.25-7.23C3877.5,1437,3877.62,1380.15,3877.62,1323.27ZM1505.69,257.2c-3.39.31-6.11,3.59-10.84.24-7.73-5.47-12.65-11-11.2-20.9a13.32,13.32,0,0,0-.48-6.94c-2.39-5.42-2.61-8.64,4.53-10.57s10.07-.61,12.13,6.6c2.38,8.33,8.28,15.59,7.88,24.65C1507.08,252.87,1509.4,256.87,1505.69,257.2Zm-23.25,54.57c-4.52-.17-5.51-4.08-4.75-8.13,2.29-12.21,4.64-24.41,7-36.62,3.71,13.33,18.31,23.71,9.29,40.64C1490.49,314.14,1486.35,311.92,1482.44,311.77Zm1.93,14.46c-3.84-.27-4.93-3.58-6.75-8.59,4.33,1.4,8.27-.06,9,4.75C1486.87,324.15,1486.17,326.37,1484.37,326.24Zm-132.1,176c-3.25,4-6,4.69-9.55.43-2.35-2.83-6.19-4.86-7.52-8-4.63-11.05-14.06-15.76-25.38-20.2,16.58-16.79,31.21-33.69,45.35-51,1-1.22,1.47-3,4.51-2.22,10.78,2.68,30,23.36,30,33.5,0,1.71-1.48,3.62-2.69,5.1C1375.45,474,1363.75,488,1352.26,502.24Zm27.78-19.3c-1.57,8.62-6.92,14.66-12.78,20.37l-9.92,10.2c-1,1.77-1.92,4.75-4.35,2.87-1.17-.9-.53-4.15,2-5.3,2.7-4,5.8-7.68,10.21-10ZM1222.33,628.46c-3.64,3.38-5.65,3.36-8.54-.44-5-6.52-11.28-11.7-15.41-19.27-3.49-6.39-9.86-11.58-16.8-15.09,19.93-17.62,39.65-35,59.23-52.45,2.67-2.39,3.48-2,6.64.1,11.17,7.57,19,17.82,26.67,28.53,3.64,5.09,4.26,8.46-1.18,13.14C1255.73,597.76,1239,613.05,1222.33,628.46Zm33.08-15.66c-9.85,8.16-18.06,18.38-30.17,23.45C1235,628,1242.38,616.73,1255.4,612.8Zm-65.92,54.08,12.25-11c-.7,7.42-5.13,9.18-9.11,11.32h0c-2.58,2.77-4.88,6-9.76,7.14.76-4.76,4.29-5.55,6.62-7.44Zm-44.91,22.37c-2.75,2.18-5.59,2.2-8.28-1.17-9.25-11.57-18.79-22.91-28.25-34.31-4.06-4.9,1.75-5.8,3.52-7.18,14.36-11.21,29.06-22,43.63-32.92,4-3,8.71-5.43,11.68-9.23,6.12-7.85,10.54-5.34,16.28.45a165.09,165.09,0,0,1,23.51,29c.51.82,1.09,1.58,1.51,2.19-.06,2.7-2.09,3.71-3.55,4.89Q1174.68,665.24,1144.57,689.25Zm30.53-10.74c-5.76,8.44-14.29,13.44-23.23,18C1157.7,688.19,1166.92,684,1175.1,678.51ZM917.82,892.85c1.72-2.64,3.62-3.35,6,.26,9.34,14.42,19,28.65,28.62,42.87,2.45,3.62-.36,4.55-2.41,6-2.93,0-3.78-2.58-5.42-4.08-12-11-19.39-25.59-30-37.67C910.56,895.71,916.37,895.07,917.82,892.85Zm-6.15-43.08c3.21-4.11,5.38-6.49,9.7-4.24C919.1,848.49,917.06,851.16,911.67,849.77Zm-.47-11.46c-1.43.81-3,1.43-5.29,2.53-1.68.52-1.58-1.81-2.21-3.06-6.9-13.66-13.48-27.49-20.72-41-2.21-4.11-.07-5.42,2.48-6.87,12.31-7,24.66-13.89,37.12-20.61,2.13-1.15,5.31-4.77,7,.58,4.45,13.86,16.33,21.83,25.34,32,5.16,5.85,5.37,9.13-2.27,13C938.57,822.23,925,830.5,911.2,838.31ZM894.88,844c-.64,5.69-6.8,7.41-11.26,8.57-3.26.85-5.34-4.6-5.41-7.14-.17-6.25,7.64-5.2,9.37-9.53C893,836.86,895.19,841.22,894.88,844Zm-44.73-48c-2.13-1.23-3.93-4.55-2.29-5.92a63.38,63.38,0,0,1,15.37-9.9c2.27-1,3,3.53,4.17,6.1-1.12,3.78-4.17,5.47-7.65,6.75C856.58,794.16,854.2,798.3,850.15,796Zm4,32.67c-3.77-1.52-5.57-4.1-6-10.26Zm-64.86-73.36c-4.74-3.34-7.62-10.51-5.56-13.51,4.2-6.13,11.82-9.37,19.39-11,4.68-.87,6,2.4,7.39,5.46q7.75,17.64,15.33,35.36c.88,2.05,2.3,4.61.16,6.38-2.3,1.89-4.48-.55-6.19-1.69C809.52,769.44,799.38,762.39,789.28,755.27Zm18.42,32.85c-.06,2.19-1.73,3.12-3.09,3.58-2.83.95-3-1.71-3.64-3.43-.8-2,.77-2,2-2C804.73,786.36,807,785.47,807.7,788.12ZM767.47,687.07h0c-1.91-7.61,3-14.66,13.45-17,6.88-1.57,9.22,3.37,10.89,9.65,2.79,10.52,6.73,20.76,10.48,31,1,2.61,2.54,5.48.67,7.49-2.3,2.46-5.15-.23-7-1.52-8.78-6-17.24-12.42-25.93-18.53C765.67,695.09,768.75,690.64,767.47,687.07Zm51-88.91c.35,1.11.06,3.34-.64,3.73-7.81,4.22-16.32,7.74-25.06,6.56-6.74-.91-12.79-5.07-12.43-13.88.09-2.21-1.29-4.44-1.59-6.71-1.61-12.13-3.09-24.29-4.61-36.45,2.6-.29,4.64-.52,6.07,1.22,8.38,10.18,18.37,6.34,27.6,2.38,6.05-2.59,6.16-1.49,7.45,4.46C818.09,572.32,814.51,585.53,818.52,598.16Zm3.92,65.11c-6.66,1.86-13.27,3.89-19.9,5.85-4.73.31-7.17-1.9-8.21-6.07-3.48-13.94-7.06-27.86-10.23-41.87-.4-1.78-1.58-6.13,1-6.39l0-.16.16.15a4.68,4.68,0,0,1,1.87.38c10,3.83,17.54-1.86,25.48-5,7-2.75,8.58.36,9.06,5.61a303.41,303.41,0,0,0,6,37.35C828.73,657.87,827.93,661.74,822.44,663.27Zm5.94,5.17c4,2.78,3.84,11.4,5.51,17.43,2.12,7.63,3.94,15.36,6.43,22.87,1.78,5.39.77,8-5,9.74-5.1,1.51-9,6.54-15,5.39-3.65,1.18-4.49-.66-5.52-3.71-4.1-12.26-8.43-24.47-13.17-36.5-1.73-4.38.1-5.86,3.5-7.1,2.1-.77,4.22-1.5,6.37-2.15C817.45,672.61,823.32,664.9,828.38,668.45Zm-5.53,71.42c-2.76-5.34-.66-6.53,3.4-8.34,5.9-2.63,11.61-5.68,17.79-8.75,4.59,13.25,7.92,26.54,13.8,38.59,4.12,8.44,2.08,11.89-4.89,16.21-7.25,4.49-11.83,5.47-15.37-4.15A293.86,293.86,0,0,0,822.85,739.86Zm28.91-27.12c-4.32-14.9-9.33-29.6-12.49-44.81-7.16-34.47-14.43-69-14.12-104.42.19-22.52-1.8-45.14,2.35-67.5,3-16.33,2-33.37,8-49.13,7.5-19.9,8.42-42,19.83-60.48,9.58-15.49,13.27-33.85,24.66-48.4,3.33-4.25,4.72-9.25,10.62-12.21,5.05-2.54,3.59-11.15,7.94-16.24,6.76-7.91,11-18.28,18.49-25.21,17.47-16.1,28.49-38.09,48-52,8.59-6.15,14.79-14.6,22.91-21.09,8.78-7,17.62-13.93,26.41-20.92,2.68-2.13,4.62-4.45,9.16-3.63,4.75.86,2.32-6,6.54-8.38,12.94-7.25,24.27-17.72,37.65-23.78,18.49-8.38,34.48-21.62,54.33-27.14,4.05-1.13,7-4.9,12.46-2.27,3.44,1.67,4.58-5,7.93-5.93,17.53-5,33.59-14,52.84-14.8,8.2-.36,17.44-6.33,27-7.5s19-2.75,29-2.54c8,.17,17.13-3.07,26-3,22.5.06,44.91.93,67,6,22.33,5.16,43.71,12.71,63.58,24.28h0l6.34-.94h0c-2.3-8.13,4.62-10.88,9.3-13.52s6.34,3.09,8.17,6.33c3.07,5.43,6,11,8.63,16.62,1.27,2.71,3.61,6.22-1.84,7.51h0c-6.86,2-1,4.47.2,5.65,15.67,15.09,15.62,33.67,12.13,53.07.69,34.12-9.17,65.93-22.9,96.47-7.34,16.32-14.72,32.85-25.14,47.71-14.41,20.55-26.87,42.71-43.07,61.7-17,19.94-32.36,41.35-50.93,60q-26.95,27-54,53.86c-4.89,4.87-10.6,8.43-16.53,12s-8.68,11.14-14.81,15.76c-13.46,10.15-25.53,22.13-38.7,32.71-27.14,21.82-53.88,44.19-82.63,63.93-25.36,17.41-49.83,36.09-76,52.41-26.44,16.52-52.67,33.35-79,50-6.44,4.08-15.42,4.75-20.35,9.35-7.91,7.38-17.09,11.83-26,17.14-6.52,3.89-13.4,7.21-19.64,11.49-4.07,2.79-4.56-.21-5.49-2.43C866.54,756.89,858.27,735.18,851.76,712.74ZM944.9,830.37c6.42-4.24,12.59-9,20.54-10.25-4.48,6.63-12.23,8-18.3,12-4.77,3-9,7.43-17.18,5.95l14.95-7.71Zm-6.12-63.64c-1.65-2.83-2.47-5.51,1.55-7.95,23.94-14.55,47.74-29.33,71.54-44.12,3.46-2.15,5-2.19,7.42,2,6.28,11,15.05,20.11,24.25,28.81,5.59,5.28,7.1,9.7-1.65,14.73-21.23,12.22-41.81,25.54-62.67,38.4-2.49,1.54-5.06,2.95-7.84,4.56-1.64-1-3.25-1.6-4.32-2.71C956.88,789.87,946.28,779.57,938.78,766.73Zm62.63,29.3L1029.79,779c1.5-1.67,2.92-3.46,5.52-3.28,5.71-3.59,10-9.77,17.56-10.09a39,39,0,0,1-14.43,10.54l-8.52,5.5c-7.5,7.46-17.25,11.37-26.15,16.63-4.8,3.57-9.18,8-18.1,8.53A57.5,57.5,0,0,1,1001.41,796Zm22.4-88.32c23.94-16.47,48-32.85,71.74-49.54,3-2.09,4.63-2.12,6.59.52a305,305,0,0,0,27.33,31.58c3.64,3.72,4.48,6.38-1.26,10.49-20.7,14.82-41.72,29.16-62.65,43.64-4.77,3.3-7.6,3.19-11.51-.77A262.8,262.8,0,0,1,1023.81,707.7Zm58.72,36.08h0l11.89-8.32,5.94-4.08c2.72-1.46,4.32-5.45,8.41-3.8h0l.4-.87-.26.79,0,0c4.52-9.47,14.79-11.89,22.09-17.93l7.64-5.95c.21,5.46-3.56,5.93-5.5,7.81a119.6,119.6,0,0,1-24.23,16.07l-.07.13-.11,0c-.9,3.13-3.49,4.43-6.13,5.68l-6.09,3.95c-3.23,3.83-7.54,6.16-11.81,8.57-2.6,2.58-5.53,4.62-11.41,6.43C1076.5,747.53,1079.17,745.34,1082.53,743.78Zm197-155.33c-1.39,6.46-10.19,15.74-20.23,20.4C1264.52,600.66,1272,594.79,1279.48,588.45Zm-25.42-52.08c-3-1.39-2.7-4-.13-6.43q24.64-23.66,49.07-47.52c2.53-2.46,4.35-1.17,7,.22,13.19,7,19.82,19.38,26.94,31.41,1.63,2.76-.16,5-2.14,7.06Q1312,544.52,1289.14,568a29.23,29.23,0,0,1-3.26,2.5c-1.66-1.56-3.21-2.81-4.5-4.28C1272.48,556.08,1267.44,542.51,1254.07,536.36Zm72.8,5.32,13-14.43,2.47,2c-3.14,5.85-8.47,10.12-13.31,14.73-8.07,13.88-22.43,21.15-32.31,33.14l-2.39-2.36ZM1394.75,464c2.66,8.49-3.65,10.06-6.51,13.77l-2.22-1.33Zm-.12-24.81c-4-4.72-9.32-8.42-11-14.69-1-3.72-3.79-4.76-6.78-5.81-4.52-1.58-9.06-3.09-14.54-4.94,14.08-15.07,21.54-34.09,35.7-48.38,2.16-2.18,2.66-3.2,6.64-2.68,16.5,2.13,21.85,14.57,27.4,27.06a9.39,9.39,0,0,1-1.68,9.51c-10.42,12.15-17.42,26.54-26.5,39.55C1400.83,443.15,1398.28,443.58,1394.63,439.23Zm32.5-10.59c-6,7.87-11.56,14.53-16.3,21.74-2.47,3.75-3.89,1.66-4.66-.26C1404.22,445.22,1419.85,428.16,1427.13,428.63Zm-.11-9.73c.7-5.35,3.78-9.73,6.93-13.9.65-.86,1.82-3.33,3.66-2.06,1.55,1.07,2.54,2.95,4,4.75-3.71,5.17-6.74,10.86-11.19,15C1427.94,425.07,1426.74,421.11,1427,418.91Zm12.59-42.27c-4.23-.06-7-2.86-8.19-6.27-3.52-9.91-10.52-14-20.64-13.95-4.74,0-5-3.33-3.37-6.16,8.48-14.6,16.92-29.2,24.31-44.42,2.77-5.69,7.77-.57,11.51-.57,10.86,0,19.53,9.72,19.63,21.9-2.14,9-6.76,18.91-10.91,28.91a105.42,105.42,0,0,1-7.27,14.15C1443.31,372.52,1443.93,376.71,1439.62,376.64Zm7.78,6.94c.52-4.67,1.45-10.27,6.48-12,2-.69,6.07,1.39,8.34,4.93-3.11,4.49-5.43,9.4-9.2,12.56C1451.41,390.39,1447,386.8,1447.4,383.58Zm12-18.06c-2.27-1.55-2.57-3.4-1.37-5.92,2-4.09,3.06-8.7,5.58-12.36,1.81-2.62.87-9.13,5.65-7.34,3,1.12,4.34,6.6,6.66,10.53-3.08,5.47-5.73,11.17-9.38,16.11C1465.24,368.29,1461.66,367.07,1459.39,365.52Zm7.32-52.29c-2.31-16.28-14.78-15.38-25.43-17.16-4.55-.76-4.17-2-2.69-5.85,4.71-12.23,9.12-24.61,12.77-37.18,2.42-8.37,8.73-7.4,14-6.36,5.07,1,12.33.81,11.85,10C1476.27,275.42,1473.47,293.79,1466.72,313.23ZM1463,193.9c2.94-.08,5,.89,6.07,4a148,148,0,0,1,7.62,37.63c.59,8.3-7.82.71-9.5,3.47-10.5,1.69-13.19-.59-10.29-10.49,2.65-9.07,2-19.09,2.94-28.69C1460,197.45,1458.51,194,1463,193.9Zm11.5-2.21c10.25-.43,14.07,5.37,16.66,13.28,1,3.16,2.78,6.06-1.54,7.08-3.42.81-8.19,3.51-10.09-2.46C1477.7,203.92,1476.27,198.15,1474.47,191.69Zm18.71-19c3.11,7.46,6.48,14.83,9.39,22.37,1.29,3.35-1.45,5-3.49,2.91-2.51-2.56-7.14-2.35-7.82-7.85-.8-6.5-5.75-9.27-12.45-6.29-3.15,1.4-7.25,2.71-8.74-.75-1.84-4.26,3.22-4.73,5.84-6.23,4.52-2.59,9.11-5,13.6-5.87C1492.64,169.2,1492.58,171.27,1493.18,172.71Zm-6.29-14.48c-.25,6-11,14.21-18.93,14.53-3.31.13-14.61-17.83-14.24-22.63.34-4.36,7.24-6.84,18.89-6.78A14.52,14.52,0,0,1,1486.89,158.23Zm-21.5-51.31c3.65,7.76,7.41,15.66,11.07,23.6.77,1.67.43,4-1.58,3.68-4.35-.65-7.88,4.1-12.85,1.26C1472.78,126.37,1457.3,115.94,1465.39,106.92ZM1450,103c3.78.62,2.68,7.61,5.64,11.4,4.64,5.94,2.44,12.38-2.12,17.76-2.27,2.68-4.67,4.08-6-1.14-1.53-6.07-5.3-11.08-8.37-16.45C1435,107.19,1438.25,102.58,1450,103Zm-26.28-20.47c1.38-3.88,1-7.74,2-12.32,13.52,2.41,15.09,14.29,20.25,23,1.7,2.86-2,3.38-3.23,3.59-4.45.78-8.46,6.14-13.54,1.5C1424.54,94,1421.63,88.51,1423.76,82.53Zm-6.38,12.28c4.2,4.65-.76,8.71-3,12-2.49,3.6-6.3,6.39-11.75,3.84q-14.35-6.7-29.09-12.54c-5.39-2.14-2.48-5.1-.46-6.44,8.09-5.35,7.45-11.31,2.62-18.41-2.17-3.2-1.14-7-.29-11.3C1392.45,69.36,1405.4,81.54,1417.38,94.81Zm-14-22.5c-9.39-8.66-21.44-12.13-30.14-22C1392.8,48.38,1405.42,57.64,1403.34,72.31ZM1374,77c4.41,4.78,3.74,8.29-1.65,11.14C1370.21,83.73,1374.93,80.69,1374,77Zm-54.32-35.23c13.26,1.59,26.4,4.95,37.57,11.67,8,4.8,9.18,16.23,14.12,24.32a5.73,5.73,0,0,1,.4,1.92c0,9-7.61,14.5-17.15,12.44-9.85-2.13-19.64-4.78-29.61-6-6.49-.8-5.64-3.4-3-6.82,3-3.9,2.44-7.5-.26-10.74-5.78-6.95-2.63-15.89-5.64-23.45C1315.27,43,1317,41.46,1319.66,41.78ZM882.58,229.2a259.53,259.53,0,0,1,36.89-36.88c4.05-3.32,7.83-2.69,12.7-.34-5.51-6.54-2.64-10,2.64-14.06,20.61-15.92,40.7-32.52,62.5-46.84,5.23-3.44,10.76-6.44,16.15-9.64l.19-.13a138.11,138.11,0,0,1,31.86-17.79c5.5-2.16,10.7-7.17,16.56-10.06,3.24-1.6,6.64-2.9,10-4.33h0c8.36-6.39,18.61-8.88,27.92-13.3,5.47-2.6,11.34-1.32,14.63,4.91,1.23,2.32,2.4,4.58,5.31,5.34-5.82-16.28-5.86-16.39,11.63-22.26,9.81-3.29,19.95-5.64,29.6-9.31,9.14-3.47,15.38-1.72,19.76,7.2,1.86,3.78,4.6,7.13,7.36,11.31,2.3-5.87-1.73-9-3.26-12.67-3.73-9-2.48-11.82,6.86-13.61,13.07-2.51,26.13-5.07,39.2-7.61,3.94-.76,6.94-.22,9.24,3.87,3.69,6.55,8.11,12.68,12.94,20.09,1.58-6.9-1.3-11.63-2.54-16.51-1.66-6.54-1-10.23,7.14-10,11.42.38,22.88.24,34.29-.31,5.48-.27,9.23,1.64,11.15,6.3,4.36,10.65,14.16,18.81,13.85,31.65-.19,7.69-2.3,11.71-11,11.28-12.41-.61-24.89-.25-37.33,0-6.53.14-11-.6-7.45-8.85,1.33-3.1-1.13-4.77-3.55-6.11-.46.48-1.16.88-1.17,1.29-.42,14.93-.37,15.28-20.3,17.37a190.89,190.89,0,0,0-29.49,5c-5.53,1.48-7.58.81-7.27-5,.2-3.8-2.9-5.77-4.83-8.55-.38.58-1,1.05-.9,1.42,2.32,13.68,2.33,13.67-11.68,18-10.51,3.24-21.19,6-31.47,9.9-7.16,2.69-13.79,6-17.61-2.95,2,8-2,11.59-10.11,13.77-7.64,2.06-14.82,5.82-22.21,8.82h0c-8.54,4.6-16.79,9.81-26.25,12.45l.67-.72a4.13,4.13,0,0,0-.67.72c-6.73,8.78-17.62,11.36-26.1,17.53-.06.07-.11.12-.17.12-10.09,5.45-17.81,14.57-29.93,17.4-3.22.75-6.6,8-11.24,11.28-14.31,10.27-28.79,21.08-40.93,33.22-13.28,13.28-27.93,25.9-38.82,41.55-4.24,6.09-7.81,5.75-14.15,3.38-14.08-5.26-21.27-17.61-30.85-27.5C879.34,236.13,879.77,232.66,882.58,229.2Zm-42.38,52.26q14.85-18.69,29.39-37.64c4.22-5.49,8.54-1.71,10.86.87,6.3,7,15.25,10.93,20.67,18.77.75,1.08,1.76,2.45,2.89,2.74,16,4.06,8.17,11.75,2.92,18.95-7.42,10.16-15.58,19.82-21.57,31-1.94,3.61-4.77,2.8-10.65,1.47-4.1-2.91-13.54-.53-18.58-10-3-5.61-9.7-9.32-15-13.58C836.16,290,836.52,286.11,840.21,281.46ZM804.62,343c5.32-15.19,14.77-28.15,22.58-42,1-1.8,2.38-3.3,5.93-.66,10.17,7.54,22,12.74,31.49,21.44,1.9,1.74,5.69,1.25,8.2,2.56,1.33.7,4.6-.15,4.1,2.34-3.75,6.8-7.07,12.87-10.44,18.92-2.43,4.35-4.71,8.8-7.46,12.94-3,4.51-3.61,13.66-9,12.85-9.22-1.38-19.74,0-27.6-7.48-5.46-5.23-9.76-11.94-17-15C800.9,347.11,803.83,345.26,804.62,343ZM784.3,402.91c3-12.12,7.36-23.75,10.6-35.75,1.46-5.42,4.37-6.66,9.31-3.6,7.74,4.81,17,7,23.35,14.29,3.22,3.66,7.94,4.46,12.73,3.89,6.92-.82,6.68,1.93,4.54,7.32-4.74,11.92-9,24-13,36.24-1.81,5.57-5.1,8-12.61,7.87-13.08,1-20.92-11-31.19-18.54C784,411.68,782.86,408.8,784.3,402.91Zm-8.15,46.51c2.31-7.37,1.92-15.58,2.85-24.23,9.52,4.41,19.06,6.43,27,13.52,5.7,5.07,14,1.3,21.9-.17-2.66,14.21-6.06,28-8,42.1-1.55,11.25-18.5,14.28-29.58,7.25C775.27,478.34,770.84,466.37,776.15,449.42Zm6.56,43.11c1.75.84,4.15,1.06,5.24,2.4,6.59,8,14.15,5.47,22,2.66,6.13-2.2,8.28-1.14,7.16,6.47-1.74,11.8-2,23.87-2.15,35.83,0,4.62-1.9,6.51-5.59,8-13.22,5.32-26.77,2-34.72-9.81-4.93-7.31-.61-16.31-2.24-22.14,0-7.27.42-12.34-.09-17.33C771.3,488.47,776.25,489.43,782.71,492.53Zm-6.9,129.32c2.29,8.92,4.32,17.9,6.47,26.85.7,2.91,1,5.65-3.4,4.41-9-2.57-21.95-19.35-22.1-29.18-2.29-8.68,5.81-8.2,10.83-10C774.66,611.49,774.74,617.65,775.82,621.85Zm-20-122.59a2.59,2.59,0,0,1,3.87-1.4c2.35,1.3,5,1.86,4.43,5.45a18.15,18.15,0,0,0,0,3c0,7,0,13.92,0,21.14-5-.87-10.13-2.68-10.42-6.75C753.15,513.63,754.76,506.39,755.81,499.26ZM752.61,560c1.27-3.63,4.63-4.58,7.9-4.62,3.91-.05,5.75,2.36,6,6.36.37,4.94,1.42,9.83,1.82,14.77.37,4.54.23,9.13,2.19,14C755.66,586.06,748.16,572.69,752.61,560ZM632.19,673.28c27.49-43.78,54.56-87.82,82.12-131.55,1.59-2.52,2.1-6.56,7.1-7.06,12.57-1.25,3.82,8.56,7.12,11.23-1.23,6.3,2.41,13.09-5.32,16.41-2.44,1-1,3,.2,3.84,6.26,4.09,4.65,10.37,4.83,16.18,1.48,49,9.74,97,22.57,144.22,6.88,25.3,14.65,50.36,24.91,74.56,1.12,2.64,1,5.14.75,7.84-.46,5.15-3,10.29,5.7,12.71,5.85,1.63,4.65,9.41-1.64,12.42C768.14,840,755.07,845,743.23,851.41c-15.23,8.27-30.67,16.11-46.39,23.16-16,7.16-32.08,14.15-48.73,20.07-16,5.68-30.75,15.86-47.11,21.86-18.3,6.71-36,14.65-54.8,20.54-14.77,4.65-29.06,13.11-44,18.92-15.46,6-31.25,11.23-46.71,17.28-3.5,1.37-7.38,2.13-9.33.05-2.8-3,1.15-6.05,2.74-8.59Q540.46,818.93,632.19,673.28ZM329.31,987.16q48-56.06,96.15-112.06c26.88-31.21,54-62.23,80.88-93.42,19.67-22.81,39.1-45.81,58.87-68.53,1.45-1.67,2.49-7,6.47-3.56,2.83,2.42-.37,4.72-1.72,6.85Q484.54,850.67,399.28,985c-4.53,7.16-9.83,11.69-17.91,13.82-13.47,3.56-26.6,8.05-40.38,10.9-11.34,2.34-22.15,8.74-33.59,12.34-2.32.73-4.34,1.47-7.22-.68C309.93,1009.92,319.58,998.51,329.31,987.16Zm-295.56,152c-5.13.79-14.25,2.26-14.72-1-.79-5.6-3.55-11.12-1.65-18,3.91-14.1,12.49-18,25.88-19.95,19.56-2.87,38.7-8.6,58.05-13,2.85-.65,5.87-.57,10.16-.95-4.28,11.91-6.68,23.06-12.31,33.46l13.72,3.86,0,1.49c-24.18,4.2-48.36,8.44-72.56,12.51C38.07,1138,35.88,1138.85,33.75,1139.18Zm94.52,16.73c-7.15.19-14.25,2.34-21.36,3.62h0c-17.33.68-33.24-4.46-48.61-11.83-1.8-2.43-.89-3.43,1.83-3.8,21-2.89,41.72-6.95,62.34-11.74,4-.94,14.28,7.56,14.3,12.54C136.79,1150.08,136.69,1155.68,128.26,1155.91ZM181.14,1107c-8.16,9.36-20.37,7.31-30.68,10.48-3.19,1-6.82,2.36-10.47,2.24-14.4.12-21.19-12.1-16.13-27,3.41-10.05,9.47-12.92,19.68-14.85,21.62-4.07,42.75-10.77,64-16.6,3-.82,6.43-2.21,8.38.16,2.62,3.19-.35,6.14-2.52,8.63Q197.31,1088.51,181.14,1107Zm55.34,9.25c-2.49,4.74-1.6,12.41-8.09,13.71-8.08,1.62-15.87,4.29-25,4.39q8.44-9.78,16.89-19.56c3.42-3.94,7.92-4.9,12.69-3.66C235.11,1111.65,237.85,1113.59,236.47,1116.22Zm93.47-22.84c-7,11.63-25.85,18.68-38.64,14.1-5.65-2-11.87-3-18.8-7.94,19.06-4.76,35.78-8.77,52.36-13.26,2.79-.76,4.84-1.41,6.68,1C333.55,1089.88,331.1,1091.47,329.95,1093.38Zm7-23.73c-.71,6.11-9.81,4.12-15.15,5.89-20.48,6.78-41.46,11.64-62.31,17.07-6.62,1.73-11.86.67-18-2.57,13.35-15.6,26.37-30.75,39.3-46,3.63-4.28,8.45-5.66,13.62-7,9.62-2.52,19.07-5.68,29.56-8.86-1.63,9.19-1.78,18-4.95,25.56-2.74,6.53,1.53,5.48,4.29,7.65C327.7,1064.89,337.71,1062.77,336.91,1069.65ZM354.35,1055c-3.09,4.73-11.26,4.32-14.63-.33-9.42-13-3.79-29.58,11.5-35a241.93,241.93,0,0,1,31.54-9.3C372.41,1026.65,363.52,1040.89,354.35,1055ZM426,1069.73c-7.58,2.11-14.86,5.27-22.45,7.37-7.83,2.17-13.24-3.75-19.79-8,12.67-3.92,25.46-7.5,37.95-11.92,4.73-1.67,9.71.2,10.22,2.65A8.31,8.31,0,0,1,426,1069.73ZM393.63,1054l32.78-52.53,1.92.29c.13,2.62,1.22,5.7.23,7.79-5.75,12.08.21,16.73,11.13,18.41,5.1.79,6.16,5.26,6.76,8.67.78,4.43-4.68,3.22-6.69,3.79C425.27,1044.51,411.54,1051.3,393.63,1054Zm61.62,5.53c-3.33,1.26-6.73,2.33-10.86,3.75.9-6.11-5.73-13.16,6.56-15.85,7.65-1.67,9.74,3.2,11.14,6.34C464.27,1058.64,458.31,1058.37,455.25,1059.53Zm68.63-24.86a174.42,174.42,0,0,1-18.6,7c-6.86,2-11.37-3.56-17.94-6.12,11.18-4.53,21.79-6.65,31.43-11.54,4.6-2.33,8.74-1.46,10.89,4C532,1033.85,526.78,1033.47,523.88,1034.67Zm-48-6c-6.83,2.33-12.17-3.87-18.32-5.12-10.75-2.18-13-10.38-15.33-18.73-2.5-9.11,1.55-16,10.52-19.37,26.54-9.83,53.06-19.7,81.74-30.35-3.1,16.28-1.9,29.81,15.42,36,3.26,1.16,5.79,4.36,10.36,7.95C530.4,1009.62,503.23,1019.4,475.9,1028.71Zm89.69-9.54c-5.81,2.31-11.71,4.39-17.57,6.6-2.58,1-5.84,4.45-7.18-.7-.95-3.63-4.11-8.63,3.59-10.25,5.66-1.19,11-3.84,16.42-6.13,7.52-3.2,4.91,6.28,11.41,6.26C568.73,1017.21,567.28,1018.49,565.59,1019.16ZM621,996.43c-3.09,1.79-7,2.14-10,4-7.13,4.44-12.69,3.11-17.91-3.88,8.34-3.18,16.58-5.79,24.31-9.46,5.2-2.46,7.69.73,9,3.83C628.2,995,623.23,995.16,621,996.43Zm-23.67-11.85c-1.51.62-3,1.23-4.53,1.87-11.7,5-31.52.72-39.54-9.42-4.45-5.63-5.77-12.89-6.37-19.94-1.29-5.9,1.71-8,6.81-10q38.21-15.18,76-31.32c6-2.53,9.71-3.2,8.93,4.84-1.11,11.4.35,20.41,13.78,24,3.89,1,7.3,6.81,9.26,11.16,1.74,3.86-3.33,3.8-5.57,4.73C636.62,968.66,617,976.58,597.37,984.58Zm73.1-9.61c-9.78,4.49-19.74,8.59-27.56,11.94-6.26,1-7.36-2.17-8.39-4.75-1.78-4.47,2.58-2.59,4.09-3.26,9.2-4.11,18.79-7.42,27.69-12.07,4.65-2.42,6.31.45,7.88,2.78C676.66,973.3,672.35,974.11,670.47,975Zm45.91-22c-3.51,1.83-7.16,3.45-10.52,5.52-3.87,2.38-7.78.95-9-2-1.61-4,3.58-3.74,5.77-5,3.67-2.11,7.93-3.16,11.82-4.93s4,1.76,5.31,3.54C719.9,952.62,717.71,952.32,716.38,953Zm-29.8-5.29c-3.3,1.46-6.73,1.55-10-1.78a26.48,26.48,0,0,0-10-5.84c-12.73-4.5-13.82-16-16.86-26.34-.86-5.1,1.61-7.17,5.9-9.09,24.8-11.13,49.48-22.55,74.12-34,6.25-2.92,9.77-2.95,10.12,5.47.39,9.37,3.69,16.83,13.67,21,4.63,1.92,7.9,7.63,11.21,12.05,2.1,2.81-.9,3.87-3,4.82C736.72,925.24,711.7,936.61,686.58,947.73Zm85.63-20.41c-12.2,5.87-24.54,11.46-36.71,17.38-2.91,1.41-4.86,1.38-6.35-1.53-1.73-3.4,1.22-3.77,3.19-4.72,12-5.79,24-11.73,36.21-17.23,2.25-1,6-2.39,7.21,1.52C776.32,926.15,773.77,926.57,772.21,927.32Zm41.22-20c-3.89,4.22-9.56,5.47-15,8.21-2.06-1.3-5.08-2.16-6-4.07-1.34-2.64,1.78-3.74,3.77-4.86a10.84,10.84,0,0,1,1.79-.88c4.46-1.53,8.32-6.41,13.75-2.67C813.17,904,814.51,906.1,813.42,907.28ZM811.81,890c-2.35,1.2-4.6,2.62-7,3.78-23.55,11.5-24,12-43.8-4.73-7-5.91-9.44-16-12.09-25-.95-3.23,2.13-3.63,4.07-4.62,11.34-5.77,22.73-11.43,34-17.3,3.16-1.64,5.13-1.8,6.53,2.07,5,13.84,12.38,26.57,18.86,39.73l1.77,3.58C814.48,889.41,812.92,889.41,811.81,890ZM816.92,815c-4.92.18-5.23-.42-5.69-11.1-.24-5.53,8.87-15.54,13.76-13.64,5,2,11.59,3.81,13.56,10C839.46,803.24,821.81,814.87,816.92,815Zm19.21,16c-3.38-4.44-8.46-4.69-8.41-9.7,0-.43,2.34-1.34,3.46-1.16C836,820.94,836,824.76,836.13,831Zm-7.53,21.93c-.82-.5-1.56-2.94-1.23-3.24,2.47-2.21,5.26-1,9-.52C833.91,853.4,831.67,854.81,828.59,852.94Zm9.24,16.38c-3.23-2.64-1.38-5.45,0-7.77,6.63-11.46,19.18-13.47,24.89-4.14a6.48,6.48,0,0,1,.83,1.89c1.72,3.41.44,4-.7,4.61-5.5,3.09-10.86,6.46-16.54,9.17C842.54,874.87,840.35,871.38,837.83,869.32Zm19.48,11.23c2.74-6.74,9.39-6.93,14.71-9.35C868.9,877.29,863,878.78,857.31,880.55Zm12.54-47.65c-3.8-6.57-6.84-13.68-11.35-19.69-3.95-5.27-2.07-7,2.61-9.51,11.15-6.1,11-6.3,16.66,5.31q4.08,8.43,8.21,16.83c.15.3.33.58.91,1.59-2.21,5.26-9.15,4.87-12.67,9.08C872.58,838.44,870.87,834.67,869.85,832.9Zm13.63,99.37c-4-2.39-10.61-3.28-8.95-9.55,1.73-6.52,6.49-11.47,14.1-11.68,1.72,0,3.33,1.74,5.17-.26,8.41-9.13,13.15-3.74,18.21,4.11,5.93,9.2,12.87,17.75,19.22,26.69,1.74,2.44,6.33,4.6,3,8.24-2.64,2.9-4.78,7.91-10,5.94a13.94,13.94,0,0,1-8.56-3.39C905.66,944.75,894.39,938.74,883.49,932.27Zm32.83,32.36c-1.37,6.62-7.63,6.37-11.34,9.62-3.05-1.17-6.93-2.91-5.92-5.9,2.18-6.48,9.45-4.3,14.28-6.47C914.53,961.35,917.12,960.75,916.32,964.63Zm39,67.53c-3.1,3.92-5.33,2.54-7.26-1.11-1.48-2.8-3-5.57-4.75-8.79,2.43-.14,4.71.05,6.82-.47,4.51-1.11,10.44-4.92,12.9.16C964.79,1025.57,958.08,1028.68,955.33,1032.16Zm16.79-23.88c-.3,3.87-4.32,4.62-7.17,3.93-3.38.13-4.94-1.65-6.94-2.78-11.6-6.5-21.66-15.53-34.16-20.56-7.43-3-8.14-9.06-1.42-15.35,5.43-5.08,12.47-8.17,17.61-13.88,2.13-2.37,5.51-2.11,8.05,1.19,8.3,10.75,17.53,20.68,26.74,30.66C980,997.05,972.57,1002.49,972.12,1008.28Zm9.85-30c-2,2.17-4.32,1.86-6.22.23-3.3-2.83-6.26-6-6.57-10.77-1.18-2.74-3.36-4.54-5.77-6.13-6.41-.22-6.9-6.41-9.6-10.1-1.41-1.92.07-5.24,2.56-6.92,3.31-2.24,5,.71,6.53,2.59,6.57,8.23,11.74,17.53,19.52,24.85C984.37,973.91,983.75,976.37,982,978.33Zm4.38-16.06c-9-11.83-18.19-22.62-25.87-34.42-11.51-17.68-26.55-33-35.24-52.55a3.45,3.45,0,0,1,2.48-3.9c21.7-5.15,35.42-23.76,55-32.45,7.21-3.2,14.13-9.22,21,.3,3.65-5.45-2.85-9.94,1.9-13.62,3.66-2.84,7.83-7.57,12.11-3.85s12.83,4.88,8.89,14.86c-6.49,16.46-9.23,34.24-16.82,50.4C1001.32,911.37,996.43,936.83,986.34,962.26Zm36.2,77.23,10.1,14.27c-3.08,3.84-8.76,8.55-17.24,12.39Zm2.71,49.67c4.37-8.77,10.4-15.93,17.36-22.56,2.51-2.39,5-3.47,7.88-1.12q18.68,15.45,37.2,31.09a36.44,36.44,0,0,1,3.14,3.33c-3.39,4.12-6,8.51-9.73,11.57-7.57,6.23-15.24,10.09-25,2.26a107.27,107.27,0,0,0-27.63-15.53C1023.83,1096.36,1022.72,1094.24,1025.25,1089.16Zm35.13,51.75c-2.48-3.37-6.19-5.83-10.16-9.44,6.92-1.45,12.95-7.52,19.87-.67,2.92,2.89,5.14.29,7.26-1.85,7-7.05,11.83-16.1,20.46-21.8,2.91,3.26-.58,4.68-2.09,6.17-8.23,8.19-15.39,17.23-22.36,26.47C1069.57,1144.82,1065.66,1148.1,1060.38,1140.92Zm27,1.26c3.44-11.75,13.64-18.27,19.22-28.17,1.25-2.21,3,.15,4.05.84,12.92,8.95,25.73,18,38.53,27.15,1.35,1,2.48,2.18,2.35,4.15-.3,4.44-20,23.7-23.85,23.83-3.58.34-4.12-2.77-6.14-3.83-10.38-5.47-20.7-11.07-31.05-16.6C1087.43,1147.91,1086,1147.06,1087.41,1142.18Zm50.43,52.78c.48.58.88,1,1.25,1.5,2.46,3.1,11.3,2.06,7.5,8.45-1.82,3.06-6.27-2.47-9.24-4.46-8.16-5.47-16.09-11.3-25.21-17.77,7.36-1.33,13.27-8,20.16-.86,1.81,1.87,3,.77,3.75-.47,6.71-11.65,18-19.8,23.55-31.82,9.54,3.07,7.29,9.4,3,13.64C1153,1172.8,1147.4,1185.4,1137.84,1195Zm22.31,4.36c-3.7-1.9-5-3.71-3.44-8.15a76.91,76.91,0,0,1,16.93-27.08,42.11,42.11,0,0,1,3.78-3.18c3.13,2.11,5.75,4,8.51,5.71q14.14,8.58,28.37,17c3.73,2.2,5.42,4.82,2.48,8.81-3.87,5.24-7.38,10.81-11.71,15.63-5.95,6.63-12.19,11.38-21.7,4.21C1176.36,1207,1168,1203.38,1160.14,1199.32Zm61.88,55.52c-15.11-5-27-14.57-40.92-23,5.93-3.75,9.94-9.82,16.76-3.38,3,2.81,4-.39,5-2.12,5.87-9.46,13.67-17.56,18.66-27.68,3.12-6.33,8.52-6.6,14.15-2.75,5,3.44,5.75,6.41,1.32,11.89-7.16,8.84-12.81,18.89-19.1,28.43-2.2,3.33-4.55,6.14,1.71,8.4C1223.7,1246.11,1222.66,1250.65,1222,1254.85Zm7.14-15.7c3.18-11.69,9.67-21.7,16.08-31.74,2.22-3.48,5.42-3.39,8.76-1.43q16.27,9.56,32.57,19.08c2.24,1.3,3.53,3,3.25,5.7-.07,6-18.24,29.73-23.85,31.1a4.67,4.67,0,0,1-3,0q-16.61-9-33.08-18.27C1228.24,1242.67,1228.69,1240.88,1229.16,1239.15Zm72.66,49.16c2.89,1,1.3,6.71.71,10.75-13.54-7-26.11-13.35-38.47-20.07-2.24-1.22-7.45-1.26-5.79-5.07,1.24-2.85,6.06-5.37,9.42-3.09,5.37,3.65,6,.76,8.77-3.27,6.28-9.24,12.39-18.59,17.18-28.6,2.78-5.8,5.62-5,10-2.91,15.34,7.34,15.37,7.29,7.35,21.76-3.48,6.28-7,12.53-10.48,18.83C1298.24,1280.72,1292.07,1284.83,1301.82,1288.31Zm23.77,3.39c-14.81-7.64-14.76-7.55-9.39-23.16a23.63,23.63,0,0,1,2.34-5.26c9.36-14.81,9.28-14.86,25.07-7,22.73,11.3,22.9,11.41,9.77,32.79-2.87,4.68-7.51,8.28-11.06,12.07-3.19-1.47-6-2.52-8.51-4C1331,1295.5,1328.49,1293.19,1325.59,1291.7Zm59.88,26.7c-.95,1.74-2.93,4-.25,4.86,9.41,2.88,2.92,9.31,5,16.5-16.47-10.42-33.57-11.72-47.49-20.73-1.72-1.12-6.66.92-4.47-4.07,1.2-2.74,3.88-6.16,6.85-4,6.3,4.6,7.6-.77,9.44-4.15,4.67-8.59,9-17.37,13.24-26.2,3.47-7.25,7.64-11,15.7-5.53a34.64,34.64,0,0,0,11.64,5.18c7.09,1.54,6.61,6.45,3.92,10.13C1392.72,1299,1390.42,1309.3,1385.47,1318.39Zm31.74,13.88c-5.75-5.69-19.13-4.51-17.69-15.89,1.19-9.4,6.35-18.27,9.54-27.44.84-2.4,1.64-1.82,3.48-1.16,9.53,3.4,18.31,8.71,28.3,11a4.6,4.6,0,0,1,3.57,4.13c-4.88,11.58-9.32,23.27-17.71,32.44C1424.16,1338.12,1419.58,1334.62,1417.21,1332.27Zm63.12,25c5.3,2.68,3.77,8.87,2.48,12.68-1.9,5.63-7.1.59-9-.38-7.18-3.68-18.29-1.26-21-12.5-.12-.49-2.43-.87-3.58-.63-4.7,1-9.08,2.66-14-.25-4.17-2.46-9.14-3.55-14-5.34.66-1.41.79-2,.94-2,17.88-.8,18.12-17.09,23.07-28,7.22-15.9,6.11-16.41,22.29-11.43,24.32,7.48,24.31,7.48,14.68,30.85-1.36,3.3-2.53,6.67-3.93,9.95C1477,1353.23,1476.27,1355.2,1480.33,1357.26Zm26.61,6.45c-5.26-4.82-16.91-4.91-15.9-13.4.9-7.6,2.16-16,5.83-23.53,2.29-4.73,3.14-6.67,8.58-4.11,5.83,2.75,12.2,4.42,18.45,6.14,2.43.67,4.17,1.44,4.69,3.2-3,12.11-8.32,22.52-13.8,32.85a1.69,1.69,0,0,1-.75.6C1511.18,1366.88,1509.12,1365.71,1506.94,1363.71Zm75.79-11.68c-2,5.13-2.75,10.77-5.1,15.68-4.36,9.1-1.15,17.81,0,26.73.56,4.21.52,6.16-5.87,4.46-19.85-5.26-39.52-10.93-59.34-18.24,7.61-.29,10.39-4.32,12.12-11,2.6-10,6.8-19.54,9.72-29.46,1.67-5.69,3.38-7.88,9.94-5.49a257.64,257.64,0,0,0,34.74,10C1584.77,1346,1584.35,1347.82,1582.73,1352Zm-116.62-66.32c-42.19-14.63-83.79-30.84-124.32-49.67-47.45-22.05-94.38-45.16-137.88-74.44-28.27-19-55.17-39.92-81.48-61.65-29.91-24.7-57.57-51.66-84.93-79-5.09-5.09-5.95-9.3-3.8-16.55,14.71-49.71,28.6-99.65,42.82-149.51,2.08-7.3,3.93-15,14.68-12.38,1.56.38,4.17,1.21,5.16-1.41.76-2-1.1-3.22-2.28-4-18.27-12.58-14-33.29-18.57-50.8-.61-2.33.69-3.15,1.94-3.86,1.84-1,3,.64,4.18,1.78,2.6,2.51,4.92,6.1,9.2,2.67s0-6.22-1.25-8.47c-2.09-3.75.33-4.86,2.39-6.33,20.68-14.82,41.52-29.43,62-44.51,3.64-2.68,5.47-1.9,7,1.13s2.08,6.7,6.85,3.44c4.1-2.81,2.47-4.82-.12-7.5-3.55-3.68-.8-6.37,2.1-8.64,13.17-10.31,26.42-20.52,39.59-30.84,4.15-3.25,8.11-6.73,12.19-10.08,4.5-3.7,8.72-7.6,13.61,0,2.71,4.2,3.78-1.6,5.92-1.84,5.36-.61.85-4.41.74-4.51-6.37-5.33-2.52-9.06,1.91-12.54,15.62-12.28,30.89-25,44.85-39.14,4.46-4.51,7.93-5.18,12.26-1.15,2,1.88,3.36,2.84,5.27.15,1.25-1.77,3.94-2.92,1.42-5.77-4.94-5.59-1-9,3-12.9,13.23-12.94,26.23-26.11,39.3-39.22,2.81-2.81,5.16-6.73,9.38-1.35,1.56,2,4.19,1.68,6.27-.16s2.63-4.27,1.07-6.28c-4.69-6-1.18-9.93,3-14,10.76-10.39,20.34-21.8,29.76-33.41,2.68-3.29,4.73-9.62,12.5-6.11,4.24,1.92,7.46-2.31,5-7.33-2.08-4.31-.9-7.15,1.95-10.69,9.24-11.49,18.22-23.2,26.82-35.17,2.78-3.87,4.12-8.29,10.42-6.28,3.58,1.15,4.09-4,3.82-4.48-5.35-8.51,2.16-13.4,5.38-19.24,5.72-10.39,12.61-20.18,17.76-30.83,2.49-5.14,11.3-4.42,9-13.68,8.15,13.84,10.82,23.27,11.08,45.57.31,26.2,3.84,52.13,5.86,78.17,2.3,29.64,5.27,59.25,8,88.88s5.45,59.24,8.06,88.88c2.56,29,5.43,57.9,8.09,86.85q4.09,44.43,8.08,88.87t8.08,88.87q4.06,44.44,8.06,88.88c2.57,29,5.62,57.94,8.11,86.94,1.89,22.07,4,44.13,6,66.18,2.8,29.62,5.82,59.22,8,88.9,1.3,18,3.75,35.91,5.76,54.62C1544.59,1310.53,1505,1299.2,1466.11,1285.71Zm167.1,42.69q-4-36.19-8.1-72.35c-3.21-28.38-6.6-56.74-9.65-85.14-3.59-33.4-9.21-66.59-10.54-100.22a63.19,63.19,0,0,1,.42-6.69l2.27,0c3.24,19,6.74,38.06,9.66,57.15,5,32.78,9.56,65.63,14.49,98.42,5.46,36.28,11.18,72.52,16.55,108.81.34,2.28,2,8-2.4,6.69C1641.71,1333.81,1634.13,1336.75,1633.22,1328.4Zm8,72.6c-.61-13.57-4.35-26.88-3.85-41.45,18,4.67,17.61,4.71,19.34,22.89,1.13,11.8,3.5,23.48,5.33,35.21C1645.28,1419.89,1642,1417.17,1641.25,1401Zm101.53-27.32h.19l.14.11h10.35c-3.59,2.17-7.1,2.81-10.35,0h-.23l.09-.11-.09.11-.1-.11h-9.14C1737.75,1371.13,1740.39,1370.86,1742.78,1373.68Zm-36.35-6.05h.19l.14.11h10.42c-3.62,2.29-7.16,2.86-10.42,0h-.23l.09-.11-.09.11-.09-.11h-9.14C1701.46,1365.14,1704.1,1364.63,1706.44,1367.63Zm-4.11,39-1.14.08c-1.45-7.63-3.29-15.21-4.17-22.9-.36-3.14-2.53-7.23,1.64-9.88,5.67-1.13,8.94.08,8,7-.82,5.82-1.58,11.57-4.31,16.86Zm82.32-16.49c-1.59,11.85-5.33,23.38-1.63,36.07,3.8,13,.4,14.39-13.78,12.82-19.54-2.17-38.83-5.72-58.27-8.36-6.14-.83-7.41-3.49-6.38-8.5.71-3.45,3.44-6.76-.31-10.12-1-.87-.3-1.73.91-1.88,1.39-.17,2.65,0,3.28,1.54,6-8.33,3.87-18.47,6-27.66,1.18-5,.82-8.14,8.74-6.56,19.78,4,40,5.67,60.06,8.29,0-3.9-1.37-6.21-5.86-6-2.82.13-6,.82-8.22-2h-.13l-.08-.08h-9.68c3.33-2,6.64-3.26,9.68,0h.15l.06.08,4.9,0C1786.32,1377.68,1786.22,1378.46,1784.65,1390.17Zm17.47,2.81c-1.35,7.71-3,15.39-3.92,23.14-.41,3.29-2.11,7.24-4.21,6.67-2.91-.8-6.31-4.59-5.42-8.16,1.89-7.61,2-15.27,2.08-22.94,0-5.69,3.82-4.2,6.92-4.45C1802,1386.88,1802.6,1389.47,1802.12,1393Zm84.69,50.1c.67,5.85-2.84,5.67-6.79,5.33-21.77-1.91-43.53-4-65.33-5.6-7.64-.55-12.85-.92-10.49-11.36,2.54-11.23,2.88-23,4.37-34.44,1-7.67,1.14-7.65,9-7.17,21.76,1.9,43.51,3.91,65.28,5.61,4.07.32,4.49,2.68,3.81,5.31C1883,1414.9,1885.18,1429,1886.8,1443.07Zm100.21,8.51c-11.07-.14-22.14,0-33.2,0-15.32-1.4-30.65-.07-46-2.22-6.13-.86-6.7-4.19-5.8-7.49,3.33-12.19,1.48-24.53,2-36.78.22-5.62,2-7.38,7.66-7.58,25.18-.9,50.23,2,75.36,2,5.49,0,4.56,3.33,4.74,6.61.73,13.26-1.74,26.64,1.88,39.83C1995.1,1451.41,1991.11,1451.64,1987,1451.58ZM3078.79,1168c-15.28-4-28.08-10-41.09-15.49-3-1.27-3.14-3.57-2.46-5.65,2.87-8.81,3.77-17.88,4.08-27.54,8,3.33,15.57,6.77,23.35,9.51a5.49,5.49,0,0,1,3.9,3.73C3070.46,1143.76,3074.3,1155,3078.79,1168Zm-136.45-118.42c-1.67,1.16-3,2.72-5.41,2.18-8.75-3-16.8-7.19-23.37-14-1.94-2-1.43-3,.26-4.8q16.59-17.38,32.93-35c1.92-2.07,3.21-2.61,5.53-.23,2.73,2.8,6.43,4.65,9.17,7.44,5.57,5.66,14.64,10.27,15.13,17.89.55,8.45-10.52,9.62-16.23,14.26S2948.31,1045.46,2942.34,1049.61Zm12.45,15c-1.08,3.55-4.29,2.9-6.84.61-2.23-.54-4.35-1.23-5.12-3.81,3.23-2.64,5.29.42,7.73,1.48C2952.19,1063.19,2955.6,1062,2954.8,1064.63ZM3093.21,597c-.13-4.91,2.33-5.94,6.13-5.1,6.33,1.39,12.52,3.38,18.85,4.78,5.51,1.22,5.3,5,4.92,9.2-2.19,14-4.24,28-6.68,42-.58,3.3-2.68,6.49-6.94,5.24-5.91-1.73-11.63-4.09-17.54-5.86-2.72-.81-2.8-2.62-2.47-4.59A233.69,233.69,0,0,0,3093.21,597Zm26.89-10.83c-7,1.29-13.84.08-20.51-1.72-2.51-.68-5.94-1.53-5.73-5.71.88-17-1.44-33.91-2.25-50.87,12.22.05,23.67,8.05,36.32-2.17-1.92,20,.5,38.73-2.75,57.35C3124.56,586.58,3122.27,585.72,3120.1,586.12Zm-2.36-66.33c-2.37.18-4.31,1.12-6.46,1.84-11,3.65-21.91-2.18-23.42-13.1a326.72,326.72,0,0,0-7.75-36.78c-1.21-4.69.12-5.31,3.9-5.2h1c12.24-.07,25.67,3.25,32.3-14.14,4.84,15.06,5.5,28.2,7.52,41.07.77,4.9.37,9.82,1.48,14.85C3127.56,513.9,3124.81,519.25,3117.74,519.79ZM3093.8,656.44c20.6,6.28,20.65,6.4,14.65,26.58-2.91,9.8-6.62,19.38-9.15,29.26-1.57,6.11-3.23,9.07-9.59,4.8-2.11-1.42-4.8-2-7.25-2.85-4.41-1.55-5.59-3.48-4.38-8.89,3.74-16.77,8-33.5,9.58-51.66C3090.39,654.78,3091.88,655.86,3093.8,656.44ZM3081,721.64c4.48,2.73,14.52,2.27,11.33,11.53-5.37,15.57-11.89,30.74-18.05,46-.9,2.22-2.59,4-4.83,3.47-7.76.07-12.43-6.21-10.28-12.92,4.5-14.07,9.39-28,13.26-42.28C3073.93,722.06,3076.4,718.81,3081,721.64Zm-14.2,72.65c-1.34,3-2.63,6.44-4.31,9.64-7.08,13.43-14.73,26.57-21.23,40.27-2.8,5.9-5.15,1.44-7.13.61-2.34-1-6.14-1.26-3.59-6.6,7.49-15.7,13.93-31.89,21-47.81,1.06-2.4,2-6.81,6.13-3.93C3060.8,788.68,3066.46,788.11,3066.84,794.29Zm-36.61,57.1c3.43,2,5.37,3,3,7.26-9.13,16.59-20,32-30.36,47.85-.65,1-1.88,1.59-2.92,2.43-2.5-2.1-6.81-2-3.73-7.21,9.15-15.58,17.68-31.51,26.45-47.31C3024.39,851.39,3025.65,848.72,3030.23,851.38Zm-2.34,103c3.15,4,1.75,5.78-1.38,8q-18.37,12.77-36.74,25.52c-.79.55-1.67,1-2.81,1.66-7.07-3.73-14.26-7.33-21.23-11.29-2.37-1.34-.07-2.63.83-3.8,10-13.1,20.17-26.13,30-39.36,3.07-4.12,5.71-1.85,8.33-.07C3013.21,940.66,3021.46,946.3,3027.88,954.36Zm-.27-18.88c2.77-3.32,6.7-7.65,10.5-6.12,6.26,2.53,12.54.31,19.35,2.05-3.7,5.93-7.49,11.27-10.46,17-1.72,3.33-3.52,2.51-5.51,1.22-4.38-2.87-8.62-6-12.88-9C3026.67,939.27,3026.08,937.32,3027.61,935.48ZM3006.18,1004c-4.05,5.24-8.34,10.31-12.85,15.82a320.16,320.16,0,0,0-31.85-26.14c-2.16-1.52-6.54-3.42-3.93-6.73,2.37-3,5.2,0,7.56,2,3,2.59,6.74,4.48,9.57,7.27,4.94,4.87,9.3,7.3,15.59,1.54,5.08-4.65,10.85.58,16.3.94C3009.77,998.95,3007.4,1002.47,3006.18,1004Zm-13.54-83.86c-4.42,6.58-9.22,12.91-13.88,19.32a19.4,19.4,0,0,1-2.7,3.81c-5.92,8.24-12.3,16.08-21.65,21.4l16.07-21.63c5.76-8.81,11.78-17.47,17.12-26.53,1.73-2.94,2.39-3.43,5.55-1.91C2998.69,917.32,2993.51,918.89,2992.64,920.19Zm-35.79,195.16c.75-4.51,6.16-8.29,9.56-12.32,10.47-12.43,10.42-12.28,25.09-5.2,10.82,5.22,21.67,10.49,32.86,14.8,4.82,1.85,6.13,4.36,5.48,11.83-1.24,4.66-4.23,11.78-7.45,18.93-1.86,4.11-3.26,1.6-5.06.82-16.1-7-32.45-13.48-48.11-21.34C2965,1120.74,2955.33,1124.5,2956.85,1115.35Zm30.92-28.64c-5.3-2.43-2.89-6.84-.47-9.92,2.86-3.65,6.51-6.69,9.81-10h0c6.28-11.35,15.81-20.18,23.59-30.37,1.53-2,3.61-2.7,6.13-1,7.27,4.86,9.16,17.65,2.27,25.41,14.49-3.71,16.63,5.61,19.44,15.26,3.42,11.7,7.94,23.07,12.07,34.56,1.16,3.24,3.33,6.73-3,6.23h0c-11.1-.31-18.37-9.38-28.3-12.36C3014.23,1101.45,3001.46,1093,2987.77,1086.71Zm80.76-190.43c-11.23,7.13-21.74,15.38-32.46,23.29-2.16,1.59-3.82,3.94-7.08,3-5.32-1.57-10.66-3.07-16-4.73-4.47-1.4-1.18-3.87-.28-5.28,8.84-14,17.76-28,27-41.84,1.28-1.91,2.94-5.57,7-2.8,7.54,5.14,16.29,8.46,22.83,15.12C3074.29,887.83,3075.84,891.64,3068.53,896.29Zm24.4-29.58c-2,3.89-3.42,9.69-7.11,12.82-2.67,2.27-7.13-1.77-10-4.48-3.13-3-11-2.54-9.71-7.76,1.66-6.67,9-5,14.58-5.07,3,0,6,0,9,0C3092.1,862.24,3093.52,863.16,3092.93,866.71Zm14.63-42c-12.32,9.47-24.57,19-36.84,28.58-2.45,1.91-5,3.41-8.06,2.09-12.26-.63-12.83-1.6-7.3-12.36,6.58-12.8,13.39-25.5,19.67-38.45,2.25-4.64,4.27-5.79,9-3,8.11,4.74,17.36,7.36,24.07,14.67C3111.4,819.85,3111.16,822,3107.56,824.72Zm10-17.12c-5.71-2.51-11.47-4.95-17.14-7.57-1.66-.77-4.07-1.4-3.56-3.94.39-1.92,2.47-2,4.07-2.23,1.31-.22,2.65-.22,4-.41C3122.74,790.77,3122.74,790.76,3117.52,807.6Zm16.4-51.82q-18.66,15.26-37.14,30.74c-3.54,3-7.2,3.38-10.91,1.07-4.62-2.88-.3-5.94.63-8.41,5.09-13.6,10.81-27,15.95-40.55,1.45-3.83,2.8-6.89,7.49-5.53,9.76,2.85,19,6.76,26,14.52.84.93,1.2,2.28,2.85,5.56A25.55,25.55,0,0,0,3133.92,755.78Zm-16.78-29.85,28.59-5.19C3140.79,737.88,3137.08,738.53,3117.15,725.93Zm33.62-39.37q-16.87,15.62-33.54,31.44c-1.79,1.7-3.47,3.35-6.07,1.88-2.88-1.64-1.33-3.78-.72-6,3.73-13.69,7.22-27.45,10.93-41.15,1.78-6.56,4.34-9.57,12.71-7,8.73,2.68,14.48,7,18.66,14.66a21.68,21.68,0,0,1,1.5,4.39A11.75,11.75,0,0,0,3150.76,686.57Zm7-29.83c-.64,2.94-.66,8.13-4.73,6.56-5-1.95-14.39.59-14.37-6.47,0-4.47,8.87-4.15,16.36-5C3156.49,651.48,3158.63,652.56,3157.72,656.74Zm1.81-39.3c-9.52,10.51-19.75,20.37-29.68,30.51.3-15.32,3.25-28.81,4-42.67.36-6.83,3.71-11.19,11.7-7.5,2.91,1.34,6.12,2,9.17,3.11C3161.7,603.32,3164.61,611.83,3159.53,617.44ZM3161,591c-1.32,2.9-4.31,1.85-6.86.69-3.71-1.69-8.44-.58-12.07-4.87,4.56-1.11,8.58-2.15,12.63-3.07,2-.46,4.42-3.36,5.94-.35A9.9,9.9,0,0,1,3161,591Zm-2.81-37.92c-5.14,7.22-11.74,13.41-17.71,20l-2.94-.59q0-18.87,0-37.74c0-3.16,2.28-6,4.62-5.42,5.58,1.31,13.4-.63,16.29,4.67C3161.46,539.53,3162.24,547.38,3158.19,553.07Zm-.12-44c0,4-.08,6.56,0,9.14.18,4.54-.34,7.21-6.2,4.86-4.19-1.68-9.05-1.68-13.61-2.43,2.18-6.17,8.87-4.86,13-7.81C3152.83,511.7,3154.62,510.94,3158.08,509Zm-10.59-40.94c5.48,13.18,3.14,21.22-10.5,31-3.48-8.66-2.16-18.17-4.87-27-1.2-3.9.57-7.31,4.43-7.24C3140.13,465,3144.79,461.63,3147.49,468.11Zm-4.92-15.85c.43,7-5.49,1.4-8,3.37-4.89,3.25-6.36-1.38-6.42-3.84-.15-5.72,6-5.52,9.3-6.67C3143.39,443,3142.46,450.49,3142.57,452.26Zm-17.67-48.56c2.17,5.09,4.21,10.24,6.46,15.74-1.6,3.65-3.3,8.58-7.18,9.29-4.53.83-1.92-4.5-3-6.89a138.51,138.51,0,0,1-5.38-14.68c-1-3,.44-5.3,3-6.58C3121.93,399,3123.77,401,3124.91,403.7Zm-18.6-24.27c2.8.09,6.42-1.84,8.12,1.73,1.79,3.76,5,6.94,5.14,12.24-6.92.95-14.5-4.94-14.81-11C3104.7,381.23,3104.38,379.36,3106.31,379.43Zm8.26,56.63c1.73,5.51-6.07,18.15-12.41,20.23-5.13,1.68-10.59,2.38-15.91,3.51-7.46,1.58-11.16-1.73-13-8.91-3.94-15.23-10.44-29.52-18.56-44.83,5.63,0,9.69-.38,13.65.08,7.14.84,12.23-1.59,15.29-8.15,2.75-5.89,9.41-6.69,13.33-11.9C3105.22,402.89,3109.42,419.65,3114.57,436.06Zm-15-72.26c-8.15-6-9.63-13.32-14.15-19.12C3092.71,345.73,3094.95,348.61,3099.61,363.8Zm-30.94-30.11a240.73,240.73,0,0,1,19.56,33.11c1.08,2.27,3.22,4.2,1.37,8.07-6.95,14.48-17.66,23.63-33.44,26.7-3.25.63-4.44-1.53-5.92-4.06-9-15.33-18.31-30.47-30.53-46,16.25.81,23.74-9.59,32.25-19.37C3060.6,322.17,3061.25,322.92,3068.67,333.69Zm-56.5-64.9c2.47-.51,3.22.64,4.21,1.56,12.42,11.72,24.05,24.14,34,38.06.72,1,1.72,2.26,1.65,3.33-.6,9.11-21.81,32-31,34.85-5.58,1.71-7.19-2.34-9.61-5-10.68-11.77-19.63-25.14-32.74-34.65-3.94-2.86-4.19-4.86,1.6-6.11,7.76-1.68,12.63-7.09,15.89-14.33C2999.69,278.7,3007,274.21,3012.17,268.79Zm-64.61-42.24c5-6.42,7.59-7.08,13.81-2.7,13.29,9.37,25.68,19.8,38.12,30.22,1.91,1.6,2.34,2.57,1.52,4.84-5,13.77-11.69,26.54-22.41,36.66-2.46,2.33-6.47,5.63-10.51,1.78-14.39-13.73-30.67-25.11-47.45-38C2937,253.84,2939,237.58,2947.56,226.55Zm-66.34-40.18c2.6-4.34,4.55-6.2,10-3.46,15.62,7.85,31.32,15.52,46,25.12,2.19,1.44,5,2.54,3.76,6.29-3.62,10.2-6.42,21.19-12.95,30-11.27,15.14-11.68,14.25-27.92,3.56-10.75-7.08-22.66-12.37-34-18.56-2.7-1.47-7.58-2.85-3.81-7C2871.73,211.88,2874.25,198,2881.22,186.38Zm-72.58-27c.91-2.45,1.27-6.17,4.3-6,5.51,1.57,10,2.6,14.33,4.13,13.33,4.7,26.66,9.42,39.85,14.48,5.19,2,8.86,4.2,5.56,11.87-4.42,10.27-6.24,21.6-12.26,31.38-3.41,5.55-6.75,7.62-13.57,4.55-14.88-6.7-30.07-12.83-45.46-18.23-6.32-2.22-7.73-3.17-4.39-10C2802,181.41,2804.66,170.11,2808.64,159.4Zm-13.51,31.77c-1.77-.77-1.52-1.75-1.07-2.64s.92-2.13,1.66-2.37c1.34-.43,1.39,1,1.15,1.76A19.5,19.5,0,0,1,2795.12,191.16Zm-62.44-50.86c.41-1.59.62-4.95,4-4.13,22,2.68,43.3,8.55,64.8,13.35,2.07.46,2.23,2,1.56,3.85-4.51,12.8-6,26.6-13.34,38.5-1.85,3-2.39,5.38-7.12,4.14-17.92-4.68-36-9-54.09-12.78-4.25-.88-5.2-2.6-4.51-5.82C2726.68,165,2729.53,152.61,2732.69,140.3Zm-75.26-6.1c.61-3.36,2.66-3.31,5.05-3.31h10.76c16,.81,30.74,1.68,45.46,2.24,7,.27,10.18,2.66,8.25,10.25-2.94,11.59-5.43,23.29-7.9,35-.61,2.9-2.34,2.68-4.38,2.53-19.14-1.41-38.14-4.74-57.42-4.1-3.23.11-3.66-1.71-3.87-4.39C2652.36,159.41,2655.14,146.85,2657.42,134.2ZM2584.69,140c1.06-3.48,4.07-4.43,6.88-4.62,17.17-1.18,34.09-4.9,51.45-4.37,6.18.19,8.54,1.74,7.65,7.92-1.6,11.15-3.1,22.33-4.4,33.52-.4,3.48-2,4.37-5.2,4.23-5.35-.22-10.72-.06-16.08-.06-12.93-.24-25.66,1.84-38.41,3.53-1.87.25-3.42.52-3.86-1.56A75.86,75.86,0,0,1,2584.69,140Zm57,44c23.29,1.06,46.71.15,69.77,4.2,22.35,3.93,44.94,7.31,66.49,14.44,20.84,6.9,42.6,11.81,62,22.24,20.8,11.19,43.5,18.85,62.56,33.23,16.5,12.45,35.2,22,50.16,36.36,16.34,15.68,34.78,29.36,48.15,48,12,16.74,26.58,31.91,35.83,50.36s21.1,36.17,26.33,56.4c6,23.33,13.43,46.19,16,70.68,1.85,17.66,1.08,35.65,3.83,48.2.92,78.85-15.07,149.59-42.14,218A750.57,750.57,0,0,1,2974,915.56c-25.46,39.7-54.87,76.33-85.78,111.84-4.45,5.11-14.84,5.93-20-.34-7.76-9.35-18.78-12.32-28.66-17.41-12.46-6.41-24.07-14.14-35.94-21.46-23.81-14.68-47.87-29-70.91-44.85-14.2-9.75-28.32-19.8-42.3-29.88-16.64-12-33.54-23.64-49.71-36.31-15.76-12.35-31.7-24.48-47.06-37.3a1096.49,1096.49,0,0,1-87.22-81c-22.39-23.25-44.2-46.91-64.89-71.81-12.44-15-25.44-30-36.72-45.6-9.45-13.06-19.67-26.33-27.11-41-11.18-22.06-22.47-44.07-33.42-66.25-14.22-28.81-22.33-59.39-28-91-9.22-51.19,12.73-92.34,40.11-131.75,13.31-19.16,29.29-36.56,48.31-50.35s37.89-27.27,59.62-37.21c16.34-7.47,32.6-14.87,49.63-20.34,19.51-6.26,39.26-12.4,59.67-14.55C2596.15,186.55,2618.72,183,2641.72,184Zm171.41,861c-1.53-.6-3.59-.16-4.37-2.22-12.26-5-22.95-12.67-34.1-19.57h0a5.37,5.37,0,0,1-1-.32c-27.51-15.53-27.51-16.09-9.56-41.89,3.94-5.66,7.69-2.8,11.1-.82,15.81,9.14,31.39,18.67,47.08,28,6.85,4.08,13.66,8.27,20.74,11.92,5.06,2.61,5.83,6,3.4,10.63-3.55,6.76-7.16,13.49-10.77,20.22-1.9,3.54-4.82,4.69-8.36,2.77C2822.45,1051.07,2816.55,1050,2813.13,1045Zm9.34,16c-3.86,2.77-5.6,8.34-11.28,8.69-2.07.13-2.21-1.2-1.46-3.32,1.55-4.35,2.4-9.28,7.93-9.92C2819.52,1056.22,2821.74,1058.15,2822.47,1061Zm-81.39-26.68c-3.66-2.34-10.73-2.58-6.39-10,6.89-11.7,10.45-13.59,17.59-8.43,6.61,4.78,15,6.94,20.38,13.5.28.21.56.4.83.62l2.13,1.26c11.07,3.61,20.32,10.77,30.06,16.7,8,4.86-.38,11.27-1.51,16.82-.93,4.58-5.4,4.53-8.94,2.49-11.63-6.71-23.11-13.67-34.65-20.53l-1.92-2.11c-2.7-1.29-6.05-1.36-7.94-4.19h0C2748.15,1037.41,2743.08,1038.28,2741.07,1034.31ZM2287.56,505c6.3-.05,13.22-2.32,21.18,3.85-8.26,1.47-14.47,2.07-14.62,10.9,0,1.62-4.92,8.2-10.26,7.6-5.79-.65-4.68-6.71-5.83-10.27C2274.86,507.25,2276.56,505.06,2287.56,505Zm-8.92-16.82c2.66-7.56,2.17-16.24,3-24.42.66-6.28,13.07-13.59,18.16-10.52.79.48,1,2.32,1.05,3.53.05,11,.07,22.08,2.09,29.84.26,10.31-7.13,14.38-17.09,12.42C2280,497.85,2275.62,496.72,2278.64,488.15Zm151.72,200c-6.2,4.05-12.48,8.33-19.34,10.89-3.75,1.4-5.76-3.38-8.28-6.54-11-13.86-18.92-29.78-29.72-43.73-3.4-6.44-1-9.23,10.22-12,4.36-2.54,7.28-2.81,10.92,2.35,10.85,15.42,20.86,31.56,34.34,45C2429.62,685.21,2431.74,687.21,2430.36,688.11Zm17.15,20.47c10.14,11.94,20.73,23.5,31.1,35.25,1.32,1.49,2.5,3.09,3.92,4.86-1.4,1.13-2.49,2.51-3.9,3.06-7.33,2.85-11.94,12.6-19.71,11.49-7.15-1-8.08-11.32-13.17-16.27-10.62-10.34-18.27-23.07-28.13-33.94-3.8-4.2-2.53-5.58,1.15-8.25C2434.7,693.2,2434.48,693.24,2447.51,708.58Zm-65.37-77.77c-.25.17-.67.06-1,.19-15.44,6.83-15.51,6.81-24.49-8.35-3.24-5.15-6.29-10.39-8-16.31h0c-3.08-6.73-9.58-12.06-8.37-20.53-4.09-5.71.81-7.94,4.44-9.28,3.34-1.24,7.73-5.09,11,.49,9.4,15.89,18.61,31.89,28.21,47.65C2386.16,628.15,2384.44,629.3,2382.14,630.81Zm-44.75-60c-3.25,1.38-5.32-.31-5.79-2.74-3.09-15.9-11.4-30.06-14.95-45.88-1.25-5.58.89-7,4.41-8.58,4-1.82,5.28.29,6.88,4.09,6.22,14.84,13.12,29.39,19.79,44,.54,1.2,1.26,2.31,2.25,4.09C2346.58,569.49,2341.49,569,2337.4,570.77Zm-17-61.88c-5.26.88-9.93-.73-9.5-6.84.36-5.15-4.38-9.29-1.79-14.33-.76-9.41-3.53-18.5-2.3-27.89.25-1.93-.2-4.52,2.47-4.69s2.57,2.34,2.91,4.32c2.38,13.72,6.77,26.89,11,40.12C2324.26,502.89,2327.17,507.76,2320.4,508.89Zm-25.51,43.49c3.11-8,1.41-17.23,3.93-25.76,1.52-5.16,3.9-8.19,9.45-9,3.16,10.62,5.48,20.91,9.35,30.59,2.58,6.45,0,7.86-5.1,9.58-3.76,1.28-8.14-.57-11.39,2.56C2299.13,557.75,2291.74,560.46,2294.89,552.38Zm5.9,14.73c5.38-3.85,13.38-4.17,20.41-5.51,2.21-.42,1.73,2.22,2.33,3.6,3.74,8.62,1.29,16-4.41,22.78-2.58,3.06-5.24,6.06-8.91,10.29-2.85-5.86-5.41-9.69-6.61-13.91C2302,578.52,2298.66,568.64,2300.8,567.11Zm23.23,39.3c1.62-7.46,3.23-14.92,5.33-24.61,5.2,10.37,9.81,18.59,13.48,27.22,2.41,5.65-1.55,7.31-6.61,8.19-4.36.76-9.09,5.92-12.67,3.06C2319.27,616.84,2323,611.11,2324,606.41Zm4.83,20.38c5.65-2.39,11.5-4.28,18.15-6.69-.37,0,.72-.23.86,0,3.89,7.51,10.73,14,11.49,22.49.71,7.87-6.9,12.09-12,17-2.95,2.81-3-1.5-3.65-2.47-5.33-8.12-10.29-16.48-15.46-24.71C2326.85,630.22,2326.12,627.95,2328.86,626.79Zm30,46.3c2.17-6.77,4.27-13.56,6.82-21.69,2.51,3.55,4.3,5.89,5.89,8.35,8.56,13.27,8.56,13.47-5.83,19.65-1.82.78-3.95,3.62-6.15,1.31C2357.59,678.64,2358,675.78,2358.84,673.09Zm6.58,14.14c4-5.23,10.6-5.74,16-8.3,3.41-1.62,4,3.32,5.51,5.42,4.75,6.38,9.18,13,13.75,19.52,1.11,1.59,2.25,3.17,3.4,4.78-3.25,5.82-6.1,11.52-11.66,14.85-2,1.2-3.66-1.17-4.79-2.7-7.14-9.69-14.13-19.48-21.28-29.16C2365.25,690.17,2364.23,688.79,2365.42,687.23Zm41.18,40.5c1.26-3.33,1.92-6.88,3.12-11.32,3,3.62,5.18,6.09,7.18,8.68,2.64,3.42,4.85,6.73-1.31,9.12-4,1.56-7.57,7.86-11.57,4.81C2401.14,736.82,2405.16,731.54,2406.6,727.72Zm5.73,15.63c4.77-2.21,9-13.34,16.82-2.8,7.56,10.16,16.26,19.46,24.45,29.15,1,1.23,2,2.52,3,3.79l2,2.48c-4.2,3.23-8.13,6.92-12.68,9.55s-8.71-2.83-9.52-4.58c-5.18-11.24-16.36-17.3-22.49-27.52C2411.93,750.1,2406,746.29,2412.33,743.35Zm42.87,49.84c1.95-4.09,4.14-8.05,6.79-13.14,3,3,7.62,5.77,6,8.73-2.2,4-6.68,7.3-10.94,9.19C2454.45,799.12,2454.16,795.37,2455.2,793.19Zm4.84,12c1.53-5.35,5.2-8.6,10.41-11,5.65-2.6,7.19,2,9.72,4.45,12.46,12,22.92,26,36.73,36.28-2.9,4-5.23,7.58-8,10.81-4.28,5-9.6,4.15-12.7-1.18-8.14-14-20.51-24.06-32.85-33.89C2460.94,808.77,2459.29,807.83,2460,805.22Zm45.61,7.66c-12.15-12-24.17-24.05-35.29-37.05-3.75-4.38-2.81-6.56.83-9.42.53-.41,1-.94,1.51-1.32,15.51-11,15.5-11,29.82,3.26q17.86,17.81,35.78,35.55c1.14,1.13,2.34,2.2,3.66,3.44a28,28,0,0,1-3.41,4.17c-1.48,1.22-3.38,1.92-5,3-5.06,3.55-8,12.54-14.13,11.1C2514.14,824.37,2510.19,817.35,2505.64,812.87Zm104.05,51.34c-.11.26-.52.4-.79.59-5.6,6.13-11.57,12-16.66,18.49-3.46,4.44-6.62,3.24-9.63.67-11.09-9.47-22.16-19-32.79-29-6.09-5.72-13.62-9.65-18.95-16.34-2.26-2.84-5-5.39-1.5-8.22,6.89-5.57,11.07-14,19.36-18,7.46,1.61,10.46,8.82,15.92,13,15.5,11.91,30,25.11,44.88,37.83A1,1,0,0,1,2609.69,864.21Zm1.48,9.61c3-3.72,5.06-3.27,8.85-.31,20.57,16.08,41.52,31.68,62.33,47.45-5.09,6.81-10.72,14.1-16.07,21.61-2.86,4-4.88,3.76-8.73.69-17-13.6-34.5-26.67-51.71-40.07-3.75-2.92-5.74-7.91-11.52-8.8C2600.34,887.08,2605.84,880.51,2611.18,873.82Zm-89.6-17.37c4.07-1.37,5.23-10.8,12.45-4.25,15,13.6,30.43,26.66,45.75,39.87,2.88,2.48,3.75,4,.83,7.78a79.07,79.07,0,0,1-8.43,9.64c-11.43-11.59-24.79-20.85-36.78-31.74-4.54-4.13-9.18-8.41-13.82-12.6C2517.76,861.69,2518.31,857.55,2521.58,856.45Zm66.34,50.32h0a7.78,7.78,0,0,0,1.34-1.29c2.39-3,5.76-1.7,8.86.57,19.24,14.11,36.91,30.28,57,43.3,2.61,1.69,5.45,5.74-1.63,5.91-.29.17-.76.28-.84.52-4.84,14.55-11.52,8.31-19.07,2.15-16.76-13.67-35-25.54-50.84-40.33C2578.85,911.07,2584.53,909.41,2587.92,906.77Zm71.9,52.89c3.68-3,7.22-1.16,10.15.79,19,12.69,37.91,25.64,56.88,38.45,3.47,2.34,4.56,6.6,2,8.48-4.43,3.21-1.8,14.26-11.88,10.78h0l-12.93-7.65-15.93-11h0c-3.11.34-3.36-3.67-6-4h0c-3.22.06-3.57-3.61-6-4.61a52.44,52.44,0,0,1-14.15-10C2650.16,973.73,2649.62,968,2659.82,959.66Zm58,26.22c-15.21-10.63-29.83-22.11-45.9-31.49-1-.61-1.68-1.91-3.39-3.93,2.74-2.28,5.9-4,7.65-6.57,4.22-6.31,7.86-16.47,13.71-17.06,5.61-.57,11.91,8.12,18.29,12.14,16,10.1,31,21.81,47.72,30.9,3.83,2.08,6.83,4.46,2.51,10.72C2742.8,1003.24,2743.2,1003.61,2717.84,985.88Zm107,89.91c8-10.82,7.84-10.9,20.28-3-4.2,3.71-8.52,6.86-12,10.76s-6.32,1.13-8.59-.36C2821.6,1081.23,2822.87,1078.53,2824.89,1075.79Zm16.87-23.94c1.55-3.32,3.49-6.47,4.94-9.83,2.15-5,2.16-12.53,8.5-13.23,7-.77,12.83,4.9,19,8,2.8,1.41,2.83,5.19,1.1,7.07-6.57,7.12-13.59,13.83-20.59,20.53a3.52,3.52,0,0,1-2.49.51C2841.47,1065.22,2837.89,1060.1,2841.75,1051.84ZM2325.42,338c.63-.36,2.45,0,2.61.4,1.58,4.22-2.2,6.35-3.88,9.32-.36,4.27-1.74,8.16-5.36,13-.88-5.8,1.46-9.36,3.25-13C2322,344.07,2321.63,340.25,2325.42,338Zm186.75-164.65c.15-.91,1.53-1.83,1.39-2.55-3.72-18.25,10.51-19.6,22-23.06,8.76-2.64,17.76-4.51,26.71-6.49,13.59-3,13.61-2.92,13.6,11.29,1,8.14-3.83,16.36,1.39,24.68,2.39,3.82-3.67,4.78-5.46,5-16,1.88-31.51,6-47,10.34C2518.59,194.33,2510.72,182.13,2512.18,173.39Zm-20.24-19.61c2.3-2.52,5-2.57,9.05-.79l-6.91,2.58-22.36,9.35C2476.82,157.7,2484.29,155.56,2491.94,153.78Zm-28.54,13.09c-2.06,4.46-6,6.09-12,7.87C2453.38,166.8,2459.05,168,2463.4,166.87Zm-12.09,20c.93-2.93,2.66-4,5-5.55,12.16-8,25.76-13.07,38.77-19.32,9-4.31,10.75-2.81,11.85,7.54.21,2,0,4,0,7.13.28,2.84-.87,7.12,2.09,10.45,6.55,7.35,2.4,9.39-4.75,11.89-13,4.53-25.75,9.79-38.24,15.54-5.12,2.35-7.8,1.26-10.34-2.95C2451,203.94,2448.42,196,2451.31,186.89Zm-7.18,10.27c-1.62,10.13,5,15.79,10.54,22.58-13.73,8.42-27.85,15.5-40.23,25.33-6.11,4.85-10.77,1.23-14-3.68-3.52-5.37-10.41-11.81-3.21-18,12.43-10.69,25.15-21.09,39-30.15C2443.58,188.43,2444.76,193.27,2444.14,197.15Zm-45.66-.21c.41-.45,1.23-.5,1.79-.84,9.83-5.93,19.58-12,29.5-17.76,3.39-2,7.45-4.39,10.8-.21,3.77,4.7-1.53,7-3.46,10.08-2.77,4.35-7.56,6.29-11.77,8.88h0a47.28,47.28,0,0,1-15.15,11.36c-1.09,2.28-3.33,1.94-5.22,2.17-4,.49-6.54,10.28-10.76,3.55C2391,209.08,2393.9,201.95,2398.48,196.94Zm5.24,55.54c-12.57,9.78-23.52,22.19-35.86,33.08-4,3.51-8.54-1.69-12.2-4.16-2.11-1.42-4.91-2.9-2.11-7.07,9.66-14.36,20.82-27.4,33.46-41.36C2387.75,244.48,2398,245.31,2403.72,252.49Zm-23.56-39.14c5.53,1.88,5.77,8,5.27,11.42-.73,4.92-5.88,8.22-10.31,11.05-4.49-3-8.68-5.43-12.3-8.51C2361.79,226.44,2378.1,212.65,2380.15,213.35ZM2348,241.76c.19-4.58,5.36-7.63,8.78-8.56,4-1.07,8.83,2,11.67,5.51,3.7,4.54-3.65,6.24-3.49,10.14,3.4-1.84,5.83-4.34,6.15-8.46.24-3.06,2.54-4.3,4.92-3.3,3.64,1.53,1,4.17-.23,5.51-3.31,3.71-7.09,7-10.68,10.47-.43,3.06-1.93,5.35-5.61,7,.16-4.09,2.82-5.63,5.3-7.28h0l.13-3.94v0l-16.25,19.74C2346.69,259.13,2347.65,250.36,2348,241.76Zm-2.49,45.75c1.91-2.84,2.54-2.45,4.92-.92,3.27,2.09,7,3.43,11.11,5.35-8.93,13.72-19.82,25.08-26.85,39.11-.47.93-1.39,5.54-4.79,1.9-1.5-1.61-5.32-1.1-3.51-5.3C2332.24,314,2337.12,300,2345.51,287.51Zm-13.81-28.32c6.09,1.09,7.35,9.23,9.33,13.15.08,4.68,0,8.62-3.67,6.95-5.31-2.42-14.09-1.75-15.09-8C2321.6,267,2328.29,258.58,2331.7,259.19Zm-20.15,59.52c.26-4.33.06-8.7.06-16a142.35,142.35,0,0,1,1.31-15.91c1-6.61,4.22-6.57,8.64-6,14.07,1.77,15.94,5.48,9.85,18.08-3.43,7.1-6.34,14.44-9.53,21.66-1.06,2.4-.3,6.62-5.18,5.38C2312.92,325,2311.31,322.7,2311.55,318.71Zm-20.34.8c1.75-3.52,3.46-7.07,5.6-11.44,2.63,4.24,4.18,8.4,7.11,11,3.3,3,1.93,5.9.3,7.6-4.18,4.35-8.65-.27-12.8-1.07C2287,324.81,2290.13,321.69,2291.21,319.51Zm-3.42,29.61c0-13.38,2.77-15.75,15.72-13.8,8.13,1.23,13.67,3.33,9.76,14A113.6,113.6,0,0,0,2307.4,377c-.63,6.32-4.15,6.48-7.91,5.36-7.28-2.16-16.17-3.77-11.7-16.1C2287.79,361.13,2287.77,355.13,2287.79,349.12Zm4.48,44.73c13.34,0,16.19,4.26,12.35,19.43a58.26,58.26,0,0,0-1.73,11.65c-.7,14.06-9.16,18.52-22.25,12.41-3.75-1.75-4.63-3.74-5-7.42-1.15-10.41,1.39-20.55,2.58-30.66C2279.1,391.37,2287.6,394.66,2292.27,393.86Zm-21-16.61c.2-3.11.84-7.61,4.71-6.3,2.22.75,8.22,3.59,4.62,8.71-3.79,5.38-6.61,11.32-9.74,18.95C2267.1,389.8,2270.84,383.61,2271.25,377.25Zm-5.51,54.35c4.67,6.71,6.07,17.72,19,12.81-9.51,3.64-5.89,16.95-16.44,18.49C2262.46,453.37,2265.89,442.71,2265.74,431.6ZM2067.92,1349c9.95-43.5,21.53-86.6,31.95-130,17.14-71.39,35-142.61,52.38-213.92,11.56-47.34,24.64-94.38,34.45-142.07,10.07-49,24.87-96.75,35.44-145.58,8.12-37.5,17.25-74.78,26.19-112.1,2.72-11.34,7-22.32,8.38-34,.95-8.17,7.42-11,13.81-16.17,1.48,9.36,7.84,15.79,6,25-.89,4.47,6.05,5.68,8.15,10.27,34.41,75.08,80.94,142.06,135.51,203.87,37.44,42.41,77.91,81.65,120.15,119.13,13.68,12.13,28.41,23.08,42.52,34.73,4.46,3.68,9.16,7.51,3.2,14-1.29,1.41-.85,4.44-1.1,6.73-1.49,13.55-8.18,24.39-17.58,33.8-1.75,1.76-3.32,3.64-2.17,6.14,1.07,2.31,3.55,1.38,5.34,1.25,4.26-.3,5.79.53,6.76,5.63,6.9,36.16,14.41,72.2,21.95,108.24,6.53,31.22,13.37,62.37,20.07,93.56,1.4,6.54.77,11.13-6.74,14.62-61.57,28.64-124.42,54-189.31,74a1402.51,1402.51,0,0,1-149.85,36.9q-49.78,9.56-100.41,14.75c-30.31,3.1-60.48,7.31-91,7.81-.34,0-.67,0-1,0C2063.66,1367,2063.8,1367,2067.92,1349Zm25.3,100.35c-4,.05-8,0-12,0v-.63c-10.59.69-21.21,1.13-31.77,2.18-6.21.62-6.91-2.5-5.83-7.12,3.19-13.62,6.67-27.17,9.76-40.81.68-3,1.88-5.08,4.88-5.37,8.56-.83,17.18-1.22,25.72-2.19,6.28-.71,8.59,2.75,8.73,7.95.39,14.46-.13,29,4.52,43C2098.07,1449.06,2095.24,1449.32,2093.21,1449.35Zm102.46-9.28c-25.82,2.25-51.66,4.31-77.43,7.11-9.44,1-12.46-2.27-10.91-11.11a23.66,23.66,0,0,0,0-4c1.67-11.38-3-22.42-1.73-33.83.38-3.33.2-5.21,4.65-5.48,24-1.43,48.07-3.3,71.74-8,5.9-1.17,7.14,3.13,7.74,6.51,2.68,15.12,2.08,30.86,9.07,45.18C2199.89,1438.55,2198.27,1439.84,2195.67,1440.07Zm7.61-22.32c-4.58.93-3.59-4.24-4.34-6.49a159.73,159.73,0,0,1-5-20.86c-.52-2.81-.91-6.8,2.9-7.58s4.75,3.08,5.26,5.84c1.31,7.11,2.18,14.3,3.24,21.58C2204.44,1412.68,2207.33,1416.93,2203.28,1417.75Zm83.71,7c-18.62,3.16-37.35,5.76-55.92,9.15-3.65.67-7.26.87-13.1,1.72-9.16,2.13-6.6-7-5.3-11.37,3.81-12.74-.87-24.32-3.28-36.14-1.18-5.81-.44-6.73,5.58-7.61,20.68-3,41.27-6.88,61.73-11.18,5.4-1.14,7.28.31,8.57,4.84,3.44,12.06,4,24.8,8.53,36.6.35.91.08,2.21.64,2.85C2305.8,1426.56,2292.92,1423.72,2287,1424.73Zm19-21.48c-5.58,5-6.49,1.54-7.32-3.19h0a50.07,50.07,0,0,1-8.85-29.4c0-4.71,2.26-5.78,6.29-5.08,5.66-3.51,8.08-.72,9,4.71a142.37,142.37,0,0,0,4.71,20.43C2311.22,1395.35,2310.08,1399.57,2306,1403.25Zm92.54-5.6c-.43,3.46-3.87,2.23-5.65,2.69-21.92,5.67-43.93,11-65.94,16.3-6.86,1.66-11.74.75-9.48-8.63,6.25-13.67-2.16-26.17-4.84-39.1-1.23-5.91.64-7.16,4.71-8.18,17.14-4.28,34.56-7.61,51.38-12.89,6.78-2.13,8.15.25,10,5,4.46,11.75,6.17,24.37,11.63,35.85,1,2.1,1.43,4.5,3.48,5.69C2395.44,1395.4,2399,1393.65,2398.51,1397.65Zm1-14.52c-1.3,1.21-3,0-4-2.58-3.43-9.09-8-17.75-11.21-26.9-1.15-3.29-2.53-9,1.17-11,4.91-2.59,11-3,16.57-4.22.5-.1,1.7,1.21,1.92,2,2.34,8.84,6.38,17.24,7.06,26.53C2411.72,1375.6,2404.38,1378.6,2399.53,1383.13Zm93.77-13.7c-23.27,7.1-46.5,14.35-69.76,21.51-.87.27-1.92-.06-4.43-.19,6-18-1-34-7.81-49.74-2.49-5.77.17-6.48,4.31-7.8,13.58-4.33,27.5-7.92,40.49-13.63,9.76-4.29,13.35.89,14.79,7.73,2,9.53,7.38,17.4,10.49,26.3,1.63,4.66,3.27,9.65,10.09,8.86,2.15-.25,3.58,1.69,4.23,3.65S2495.29,1368.82,2493.3,1369.43Zm-1.71-16.65c-1.51,0-2.1-.72-2.85-2.06-5.54-10-11.77-19.63-15.37-30.57-1.43-4.36-.57-6.73,4.84-8.52,20.87-6.88,20.75-7.23,28,13.65,1.27,3.66,2.57,7.31,3.41,9.73C2509.54,1341.21,2496.67,1352.9,2491.59,1352.78Zm90.62-19.54c-6.76,2.49-13.33,5.52-20.12,8.4-7.74-5.68-9.52.89-14.25,4.73-6.55,5.34-15.81,7.59-24.17,10.34-3.71,1.22-8.28-9.42-4.88-13,4.16-4.38,2.42-8,.17-11.43-5.41-8.19-6.49-18.43-13.07-26.09-2.74-3.19,0-5,3.2-6.4,11.62-5,23-10.46,34.71-15.36,6-2.52,9.86.21,12.49,6a228,228,0,0,0,12.38,24.35c2.61,4.31,2.24,13.49,12.06,9.56,1.38-.55,3.43,1.82,3.47,4.13C2584.23,1330.3,2585.12,1332.16,2582.21,1333.24Zm18.35-29.53c-4.95,3.15-10,6.11-15,9.22-4,2.5-7,.84-9.43-2.29a118.57,118.57,0,0,1-15-25.17c-2-4.54-1.21-7.54,3.5-9.52,2.41-1,4.54-2.68,6.94-3.73,17.86-7.81,19.76-6.92,26.75,12.33,1.77,4.89,3.51,9.79,5.51,15.35C2604.22,1301.8,2602.14,1302.7,2600.56,1303.7Zm31.61,6.46c-3.29,1.47-6.49,3.15-9.85,4.44-3,1.15-6.72,6-9,1.42-1.75-3.51-2.91-10.49,2.08-12.57,5.53-2.31,2-4.9,1.09-6.42q-7.94-14-16.68-27.53c-3.29-5.07-5-8.41,2.51-11.75,6.75-3,13-7.23,19.85-10.3,2.67-1.2,4-2.34,4.74,1.43q5.14,26.46,10.37,52.9C2638.31,1306.32,2635.78,1308.54,2632.17,1310.16Zm20.67-178.4c-11.11-40.34-17.78-81.65-28.36-122.07-1.38-5.29,5-18.34,9.95-20.33,2.92-1.18,4,1.45,5.78,2.72,29.32,21.12,58.79,42.07,89.39,61.3,24.64,15.48,48.82,31.77,74.76,45.15,4.42,2.28,7.16,4.51,1.08,9.91-38.11,33.88-80.23,61.88-124.49,86.87-4,2.27-8.3,4-12.93,6.27C2662.95,1177.89,2659.1,1154.5,2652.84,1131.76Zm32,129.48c-3.53,2.6-4.7-1.57-5.22-3.6-2.83-11.25-5.25-22.61-7.81-33.94l2.6-1.17c8.09,9.47,15.1,19.81,18.57,31.94C2694.43,1259.59,2687.68,1259.13,2684.82,1261.25Zm63.46-18c-14.91,9.85-29.18,20.82-46.87,27.53.21-5.73-2.7-10.91,4.61-14,4-1.7,0-4.06-1.44-6-7-9.56-13.73-19.38-21-28.72-4.7-6-5-10.07,2.61-13.59a104.52,104.52,0,0,0,15.12-8.72c5.85-4,9.48-1.45,12.83,3.31,5.49,7.79,10.4,16.12,16.83,23,2.56,2.75,3.62,12.58,12.37,5.84,2.07-1.59,8.41,1.89,10.23,5.62C2755.49,1241.53,2750.46,1241.76,2748.28,1243.2Zm21.84-33.53c-3.1,1.11-6,2.79-9,4.05-6.35,2.62-12.93,11.45-17.77,8.81a62,62,0,0,1-21.54-20c-7.31-11.1-7.81-11.68,3.37-19,6.25-4.12,12.52-8.28,18.77-12.44,7.28-4.85,9.48,1.06,14,5,8.67,7.64,10.45,18.73,16.18,26.21C2774.51,1206.85,2773.08,1208.61,2770.11,1209.67Zm52.88-19.38c-10.94,8.94-22.38,17.27-33.65,25.8-.77.59-1.59,1.11-2.57,1.8-.82-.58-2.17-1.07-2.22-1.67-.26-2.88-1.87-6.78.9-8.43,7.41-4.41,1.55-8.7-.7-10.89-9.55-9.26-15.51-21.12-23.93-31.12-2.78-3.31-3.23-5.1,1.09-7.38,3.71-2,7-4.85,10.26-7.55,4.47-3.7,8.62-3.81,11.6,1.4,6.39,11.15,18.69,17.33,24.18,29.17,1.37,3,2.77.64,3.46-.31,2.28-3.1,5.54-2.5,8.25-1.87,3.39.78,7.56,2.09,8.84,5.33C2830,1188.4,2824.94,1188.69,2823,1190.29Zm23.49-38.14c-9.08,6-18.41,11.52-27.52,17.42-3.36,2.17-6,2-8.89-.74-7-6.79-14.13-13.43-21.2-20.14-3.94-3.74-4.35-6.81.73-10.39,9.81-6.91,19.31-14.28,28.76-21.68,3.36-2.63,6.65-4,9.46-.13,6.9,9.57,17.28,16.57,21.09,28.45a17.31,17.31,0,0,0,1.71,3.14C2850.64,1151.13,2847.94,1151.19,2846.48,1152.15Zm30.71-5.57c-5.9,4-10.38,10.17-17.68,12.62-1.53-3.61-2.22-6.66,2-8.37,7.47-3.05,3.88-6,.21-9.45-4.15-3.86-8.14-7.92-11.9-12.16-.85-1-1.13-3.55-.44-4.45,1-1.32,2.63-.39,4.24.55,7.3,4.27,14.76,8.28,22.27,12.17C2880.81,1140,2881.4,1143.7,2877.19,1146.58Zm10.06-39c-2.23,2.91-6,6.32-11.18,3.4-8-4.57-14.76-10.67-21.21-17.17-1.7-1.71-2.2-3.34-.41-5.1,2.72-2.67,5.56-5.22,8-7.46,9.85,5.22,19.31,9.18,27.45,15C2893.78,1099,2889.49,1104.62,2887.25,1107.54Zm21.22-13.86c-5.35-2.36-11-4.77-16.58-7.34a42.24,42.24,0,0,1-5.94-3.46c-4.51-3.06-13.57-3.77-13.31-8.26.38-6.52,8.65-10.08,13.22-15.19,1.72-1.93,4.31-1.65,6.35-.07,8.57,6.63,17.1,13.34,22.64,22.94C2917.71,1087.24,2914.14,1093.76,2908.47,1093.68Zm19.81-15.15c-8.37-4.65-13.62-12.47-19.14-20.46,8.17,4.24,16.5,8.19,24.43,12.85,3.47,2,2.27,6.49.79,9C2932.05,1083.91,2930.19,1079.59,2928.28,1078.53Zm47.3,75.08c-2,5.69-3.56,4.24-7.57,3.14-13-3.55-23.27-12.27-36.62-17.14,14.74-16.5,14.75-16.51,32.36-8.45.9.41,1.6,1.28,2.51,1.63C2981.47,1138.64,2980.89,1138.43,2975.58,1153.61Zm15.71,9.83c-4.35,2-9.3,2.49-6.79-5.45.67-2.14.43-4.49,1-6.81,1.84-7.93,5.52-9.84,12.11-4.79,3.65,2.8,9.2,1.8,12.24,6.59C3003.66,1156.51,2997.71,1160.51,2991.28,1163.43Zm80.5,13.9c-2.82,5.32,0,10.72-3.15,15.23-1.24,1.78,1.13,6.13-3.35,5.69-3.21-.31-7.38-.33-8.14-4.86-.81-4.83-4.4-5-7.79-4.58-13.17,1.54-22.64-7.67-34-11.44-3-1-1.82-3.55-.54-5.58,2.78-4.39,4.59-10.39,8.57-12.76,4.21-2.5,9.18,2.22,13.77,4.13,10.45,4.35,21.07,8.3,31.7,12.21C3070.49,1176,3072,1175.9,3071.78,1177.33Zm11.61,28.78c-5.09.1-7.31-3.51-6.23-8.84,1.81-4.76.82-14.53,5.14-13.72,6.33,1.17,6.49,10.82,8.51,16.93C3092.47,1205.48,3086.34,1206.06,3083.39,1206.12Zm129.47,25.16c-3.43,1.12-6.65,3-10.13,3.84-4.12,1-8.18,6.7-11.62,3.72-4.6-4-5.83-10.82-7.17-16.92-.61-2.79.72-4.56,3.75-3.53,8.43,2.48,16.86,5,25.31,7.4,1.4.4,2.45.83,2.71,2.38C3216.09,1230.45,3214.57,1230.71,3212.86,1231.27Zm-28.55-24.5c-4.28-1.43-7.53-3.77-9-9.12-2.56-9.22-6.67-18-10.91-29,22.68,7.81,42.87,14.51,62.85,21.77,9.42,3.42,5.68,12.55,4.43,18-2.72,11.78-2.34,12.11-14.41,8.55C3206.24,1213.68,3195.21,1210.41,3184.31,1206.77Zm80.82,61.62a.83.83,0,0,1-.53.61,2.45,2.45,0,0,1-.93-.33c-14-1.72-26.69-8.09-40.16-11.71-6.59,1.67-6.64-2-4.36-6.08,2.72-4.89,6.66-9.1,9.36-14,2-3.62,4.62-4.17,8.15-3.91,1.41.11,2.8.29,4.19.51,5-.31,10.74,1.42,17.44,5.1l2.14.85c6.51,2.64,1.77,10.78,4.62,16.13C3266.81,1258.92,3265.23,1264.05,3265.13,1268.39Zm-3.61-37.72-3.74-.45c-4.37,1.43-7.42-1-10.39-3.58-2.45-1.22-4.63-2.54-4.57-5.84.13-7,.09-14.1.13-21.14,0-3.55,1.07-4.34,4.9-3.15,27.88,8.63,55.8,17.16,83.88,25.13,7,2,5.33,6.63,5.38,11,.23,19.22-.21,19.34-19.21,13.25-3.11-1-6.5-1.31-9.47-2.92-4.29,4-7.63-1.6-11.57-1.16,0,0-.22-.55-.12-.69a3,3,0,0,1,.79-.59c-3-4.94-8.55,3.28-11.49-2.16-4.35,1.39-7.39-1-10.38-3.6l-3.73-.47C3267.57,1235.62,3264.5,1233.26,3261.52,1230.66Zm13.85,38.6c-.08-2.53-2-4.28-2-6.45.21-16-4.06-20.25,15.82-14.39,12.42,3.66,24.93,7,40.23,11.35-16.85,6.07-30.63,11.51-44.76,15.78C3281.41,1276.53,3275.56,1275.2,3275.37,1269.26Zm83,28.34c-10.38-2.65-20.63-5.84-31.72-9.06,3.66-6.28,6.73-12.35,10.57-17.88,3.38-4.86,8.83-6.57,14.57-5.91,6.07.7,10.3,3.46,11.12,10.53.71,6.15.1,12.32,2.1,18.55C3366.68,1299.13,3361.07,1298.3,3358.33,1297.6Zm8-40.59c-1.91-1.56-4.05,3.56-5.88-.21-8.51.57-12.94-2.29-11.8-11.91.57-4.77-1.23-9.79-1.68-14.73-.39-4.2.49-5.76,5.71-4.37,27.78,7.41,55.72,14.22,83.6,21.26,6.83,1.73,15.11,24,10.28,28.48-2.42,2.26-6.3,2.62-7.49-2.35l-.71-.06h-.72c-5.28,3.57-9.54,0-14.07-1.67h0l-.34-.13-.5-.16a1.34,1.34,0,0,1-1.68-.39c-7.73.09-15.28-.72-22.22-4.52-7.06.68-13.07-4-20-4C3375.07,1259.42,3368.54,1263.29,3366.3,1257Zm20.61,46.58c-4,1.19-7.35.36-9.14-5-2.41-7.2-3.35-14.62-4.34-22-.57-4.21,2.64-5.7,7.75-4.47,19.88,4.77,39.94,8.77,62.93,13.71C3423.24,1292.4,3405.13,1298.19,3386.91,1303.59Zm77.49,18.76c-7.33-2.47-15.22-3.26-22.85-4.85-2.31-.48-5.46-2-3.61-4.31,5.55-6.85,6.52-17.32,18.32-19.6,5.73-1.11,6.8,1.29,7.64,4.15,2,6.81,3,13.91,4.46,21.16C3467.88,1320.67,3469.87,1324.19,3464.4,1322.35Zm-3.69-44.34c-3.47-6-4.56-13.66-5.33-20.78-.53-4.92,4.52-3.15,6.81-2.7,23.65,4.65,47.24,9.63,70.84,14.51,1.58.33,3.16.66,4.75.89,12.32,1.8,16.85,6.91,17.18,19.45.1,3.8,0,3.87-8,4.13q-20.33-3.14-40.67-6.28c-10.6-1.62-21.25-3-31.8-4.9C3469.66,1281.46,3462.51,1281.11,3460.71,1278Zm21.67,45c-4.57-7.49-5.88-15.77-7.2-24.13-.89-5.63,2-7.42,6.89-6.26,23.94,5.64,48.27,9,72.67,12.95-1.28,2.48-1,5.51-5,6.45-19.63,4.59-39.24,9.3-58.68,14.63C3486.25,1328,3484.64,1326.72,3482.38,1323Zm89.46,19.55c-2.39,2.34-10.23-.81-15.6-1.66-2.54-.4-5-1.18-8.23-2,3.63-6.16,6.58-11.53,9.89-16.66,1.41-2.19,3.44-3.91,6.61-3.51,3.73.48,2.31,3.29,2.82,5.31.32,1.24,1.36,2.38,1.43,3.6C3569.1,1333.08,3575.46,1339,3571.84,1342.58Zm.74-45.13c-2.53-.24-9.65-17.72-8.07-19.6,2.31-2.74,5.87-1.81,8.44-1.22,26.76,6.23,54.24,8.24,81.08,13.94,4.71,1,11.28,12.66,9.85,17.1-.65,2-2.17,2.89-3.71,1.83-5-3.42-11.53.39-15.15-1.73-8.41-4.93-18,1.53-25.68-4.37-5.4,3.17-10.07,1.12-14.6-2C3593.76,1302.2,3583.34,1298.48,3572.58,1297.44Zm14.31,43.68c-5.43-7.45-7.1-16.59-10.28-25-1.4-3.72-.09-7,5.14-5.68,24.15,2.8,48.3,5.57,72.43,8.47a21.84,21.84,0,0,1,8.37,2.36,7,7,0,0,1,3.38,6.64c-.36,2.76-3,1.74-4.81,2.17-21.46,5.12-43,10.09-64.31,15.6C3591.6,1347,3589.15,1344.23,3586.89,1341.12Zm90.2,17.43c-2.62,4.63-10.64-2.63-18.77.49l11.87-18.59C3674.62,1346.7,3679.39,1354.5,3677.09,1358.55Zm90.19-12.4c-22,4.3-44.1,8.17-65.91,13.52-10.17,2.49-11.31-8.46-15.6-13.85-1.43-1.8-6.81-7.79.42-11.79.94-.52-1.26-6.7-2.26-11.52,19.82,2,38.82,4,57.83,5.81,5,.47,10,.46,15,.56,7.12.14,14.21,7.12,14.29,13.95C3771.08,1345.68,3769.42,1345.74,3767.28,1346.16Zm-45.06-30.24c-13.06.16-26.08-5.32-39.67-3.9-2.92.3-10.47-14.9-9.27-17.73.87-2,2.62-2,4.15-1.69,22.83,5.11,46.36,5.21,69.28,9.63a17.5,17.5,0,0,0,6,.3c11.4-1.87,18.06,2.67,19.57,14.45C3755.37,1320.8,3738.92,1315.71,3722.23,1315.92Zm56.92,56.11c-2.54.23-5.43-1.22-5.4-3.05,0-2.62,2-6.15,4.85-6.21s2.7,4,4.07,5.85C3783.36,1372,3781.08,1371.85,3779.15,1372Zm93.28-15.82c-23.1,4.3-46.18,8.68-69.29,12.94-2.45.45-14.92-12.89-14.78-15.5a2.33,2.33,0,0,1,2.45-2.48c10.73-.92,8.37-7,4.84-13.05-1.15-2-1.82-3.88-1-5.57,1.36-2.91,3.33,0,5.05,0,6,0,12.09,0,18.14,0,14.45-1.44,28.55,3.63,43,2.51,4.28-.33,15.26,14.05,15,18.64C3875.68,1356.19,3874,1355.91,3872.42,1356.2Z"/>

</svg>

