<?xml version="1.0" encoding="utf-8"?>

<!-- Generator: Adobe Illustrator 21.1.0, SVG Export Plug-In . SVG Version: 6.00 Build 0)  -->

<svg version="1.1" id="Layer_1" xmlns="http://www.w3.org/2000/svg" xmlns:xlink="http://www.w3.org/1999/xlink" x="0px" y="0px"

	 viewBox="0 0 3905 1750.8" style="enable-background:new 0 0 3905 1750.8;" xml:space="preserve">

<title>background_montagneRusse2</title>

<path d="M3905,1533.2c-3.9-3.6-7.4-5.3-11.6,0.2c-2.5,3.3-6.6,5.4-9,10.4l20.6-6.6c0,71.2,0,142.3,0,213.6h-40.7v-38.8

	c-17.9,3.5-34.5,7.2-51.3,9.9c-26,4.2-52.1,7.9-78.3,11.6c-24.1,3.4-48.3,6.9-72.5,9.7c-14,1.6-28.1,2-42.2,2.5

	c-21.9,0.9-43.7,1.3-65.6,2.2c-2.5,0.1-4.9,1.8-7.4,2.8h-258.2c-1.5-10-7.8-11.3-17-11.9c-21.3-1.4-42.5-4.7-63.7-7.2

	c-17.6-2-35.3-3.6-52.9-6c-28.8-3.9-57.6-7.7-86.3-12.6c-31.8-5.4-63.6-11.5-95.2-18c-28.4-5.8-56.6-12-84.7-19

	c-57.8-14.4-115.5-28.9-173-44.3c-29-7.7-57.4-17.4-86-26.2c-3.1-0.9-6.2-1.5-11.1-2.6c4.8,15.3,7.3,29.6,13.8,42

	c3.4,6.6,12.9,10.9,20.6,14.4c35.7,16.4,70.3,34.7,100.9,59.5c11.2,9.1,20.1,21,30.1,31.7h-67.1c-3.7-3.9-6.8-9.2-11.4-11.1

	c-2.9-1.2-8,2.4-11.7,4.6c-0.8,0.5,0.4,4.3,0.7,6.5h-12.2l-22.5-17.2l4.2,17.2h-75.3c-3.9-16.1-8.2-32.2-11.7-48.4

	c-2-9.3-6.8-15.2-15.6-19c-49.3-21.3-98.5-42.9-147.7-64.3c-2.4-1.1-5.1-1.3-10.8-2.8l23.1,134.6h-32.5c0.3-7,1.3-14,0.7-20.9

	c-2-23.6-4.3-47.2-6.9-70.8c-1.4-13-2.6-26.1-5.4-38.8c-1.9-9-6.1-16.7-16.5-20.7c-49.2-19.1-98.2-39.1-147.2-58.7

	c-8.5-3.4-17.2-6.5-26.6-10c1.5,23.5,2.8,45.6,4.4,67.6c0.8,12.1,2.3,24.1,3.1,36.2c1.6,25.6,2.7,51.1,4.6,76.7

	c1,13.2,3.1,26.3,4.7,39.5h-138.3l3.3-12l-40.2-8.5c-5.5-1.2-10.9-2.6-16.4-3.2c-1.3-0.1-2.9,2.7-4.3,4.2

	c-5.7-3.1-11.1-7.3-17.2-8.9c-13.7-3.6-27.8-5.8-41.7-8.6c-2.9,15.8,4,25.3,20.5,29c9.2,2,18.5,3.9,28.1,6

	c3.3-5.7,6.8-11.7,10.4-17.7c-1.1,6.5-2.3,13-3.5,19.6h-315.3c-3.5-2.8-6.6-6.6-10.6-8.3c-32-13.3-64.4-25.6-96.1-39.3

	c-39.8-17.2-79-35.5-118.5-53.3c-3.3-1.5-6.5-3.1-10.5-5c-6.6,14.2-12.7,28.3-19.5,42.1c-8.9,18-18.3,35.8-27.4,53.7

	c-1.6,3.2-2.7,6.7-4.1,10.1h-38.6c17.4-34.5,34.8-69,52.1-103.5c7-14,5.6-18.3-8.4-25.1c-3.6-1.7-8-2.2-11-4.6

	c-11.8-9.5-21.8-5.8-32.7,2.2c-10.1,7.5-16.1,15.8-17.9,28.8c-4.2,31.5-10,62.8-15,94.1c-0.4,2.6,0.2,5.4,0.3,8.1h-46.8

	c4.7-29.1,9.7-58.2,13.7-87.4c1.6-11.6,9-22.9,2.8-35.1c10.5-14.4-0.9-29.9,2.2-44.8c1.3-6.4-1.3-10.1-7.5-13.2

	c-41.4-20.7-82.8-41.7-123.9-62.9c-32.1-16.6-64.1-33.7-96.1-50.4c-41-21.4-82-43-123.2-64.1c-14.9-7.7-30.2-14.3-46-21.7

	c-10.5,44.5-20.7,88.4-31.3,132.2c-15.3,62.9-30.6,125.8-45.9,188.7c-4.3,17.6-8.6,35.1-12.8,52.7c-0.4,1.8,0.2,3.9,0.3,5.9h-61

	c4.8-17,10-34,14.3-51.1c22-87.4,44-174.9,66.1-262.3c6.9-27.4,13.9-54.7,21.6-81.8c1.6-5.7,0.7-8-4.2-10

	c-42.9-17.3-85.6-34.9-128.6-51.9c-15.4-6.1-31.2-11.3-47-16.4c-3.6-1.2-7.8-0.2-14.6-0.2c-12.5-14.2-34.8-13.7-53.7-21.4

	c-2-0.8-7,1.9-8.3,4.3c-14.8,25.9-29.1,52-43.5,78.1c-37.2,67.9-74.3,135.9-111.5,203.8c-26.5,48.3-53,96.6-79.4,145

	c-11.6,21.2-22.9,42.5-34.3,63.8H207.5c4.1-1.5,8.3-4.3,12.4-4.1c7,0.3,11.4-2.3,14.8-8.1c50.1-84.8,100.3-169.6,150.7-254.3

	c31.7-53.4,63.9-106.6,95.6-160c17.3-29.1,34.2-58.5,52.4-89.7c-16.4-3.9-31.6-7.9-47-11.1c-29.3-6.1-58.4-12.4-88-17.6

	s-59.4-9.1-89.1-13c-27.4-3.6-54.9-7.7-82.5-9.3c-8.3-0.5-17,6.6-25.5,10.1c-11.3,4.6-18.7,17-32.9,15.8c-1.2-0.1-3.2,3.1-4.2,5

	c-31.5,57.4-62.9,114.9-94.5,172.2c-22.9,41.5-46.2,82.7-69.4,124.1l0-150.5c9.4-10.5,19.1-20.9,28.3-31.6

	c16.4-18.9,33.5-37.2,48.4-57.2c16.2-21.7,30.3-45.2,45.9-68.7l-15.8-9.8c11.2-0.4,10.7-7.4,9-15.8H0l0-52.9l40.9-2l3-22.4H0l0-10.1

	c30.5,0.1,61-0.2,91.5,0.5c28.3,0.7,56.5,2,84.7,4c28,2,56,4.4,83.8,8c38.6,4.9,77.4,9.3,115.4,17.2

	c63.7,13.2,126.9,28.9,190.2,43.9c5.4,1.3,8.2,1.2,11.4-4.1c15.1-24.6,31.1-48.6,46.1-73.3c27.4-45.5,54.7-91.1,81.8-136.8

	c29-49,57.6-98.2,86.6-147.2c20.3-34.3,41.1-68.3,61.6-102.5c4.8-8,9.5-16,13.9-24.2c1-2,1.2-4.2,0.6-6.3

	c-3.7-10.6,2.4-18.4,10.1-21.4c8.8-3.5,11.8-10.1,15.7-16.7c19.2-33,37.7-66.3,57.2-99c37.4-62.8,75.5-125.2,113.1-187.9

	c39.9-66.7,79.6-133.4,119.1-200.2c1.6-2.7,2.8-8.6,1.5-9.6c-3.1-2.4-8-4.3-11.7-3.6c-43.9,8.9-87.9,17.3-131.3,27.9

	c-65.3,16-130.7,31.9-195.1,51.1c-83.3,24.8-166.1,51.6-248.4,79.6c-60.7,20.7-120.2,44.7-180.2,67.4

	c-51.3,19.4-102.5,38.9-153.8,58.4c-47,17.8-93.9,35.6-140.9,53.6c-23.9,9.1-47.9,18-71.4,28c-5,2.1-8.6,8-12.3,12.6

	c-5.9,7.3-11.8,14.8-17,22.7c-2.2,3.3-2.6,7.7-4,12.2l-18-1.3l0-105.9c1.3,0.2,2.8,0.9,3.9,0.5c29.1-10.1,58.2-20.3,87.8-30.7

	l-8.4-12.8c8,11.4,17.2,10.5,29.4,5.8c27.3-10.7,55.3-19.5,83-29.1c1.4-0.7,2.7-1.5,3.9-2.4c14.1-4.6,28.3-9,42.4-13.7

	c19.5-6.4,38.9-12.8,59.2-19.5l-3.6-7.1c3.7,5.8,8,5.5,14.3,3.3c25.3-9.1,51-17.2,76.5-25.9c3.9-1.3,7.2-4,10.9-6.1

	c1.7,0.1,3.6,0.8,5.1,0.3c27.9-9.1,55.9-18.2,83.7-27.5c1.7-0.6,3.1-2.2,4.7-3.4c13.4-3.9,26.7-7.8,40-11.9c15.5-4.8,31-10,46.4-15

	c0-0.8,0.1-1.1,0-1.4c-11.2-21.3-11.1-21.2-34.4-13.5c-19,6.3-38.2,12.3-57.2,18.6c-2.7,1.1-5.4,2.3-8,3.7

	c-21.7,6.5-43.4,12.9-65.1,19.5c-7.7,2.3-15.2,5-22.8,7.5c-3.7,1.3-7.2,2.7-3.7,7.5c-2.9-1.2-6.4-4-8.8-3.2

	c-29.9,9.8-59.7,20-89.5,30.2c-0.5,0.2-0.9,0.9-1.7,1.8l5.7,10.2c-5.3-10.5-12.5-10.3-22.8-6.5c-26,9.7-52.6,17.9-78.9,26.8

	c-2.5,0.8-4.9,1.9-7.7,3l14.5,21.6c-4.8-5.4-9.3-11.1-14.5-16.1c-2-1.9-6.1-3.7-8.4-3c-31.8,10.2-63.4,20.8-95.1,31.5

	c-1.8,0.6-3.2,2.1-4,2.7l6.5,11.7c-8-11.4-17.1-10.7-29.1-5.4C36.8,396.6,18.2,402,0,408.4v-12.2c15.2-5.2,30.4-10.5,45.7-15.5

	c126.3-41.7,252.5-84,379.1-124.8c98.9-31.7,198.1-62.5,297.6-92.3c52.9-15.9,106.1-30.1,159.8-42.8

	c74.4-17.6,149.3-33.4,224.1-49.3c22.7-4.8,45.8-7.7,68.7-11.3c15.4-2.4,30.8-4.6,46.3-6.7c19.7-2.7,39.4-5.6,59.2-7.7

	c17.9-1.8,35.9-2.7,53.9-4c29-2.1,58-5,87-6.1c25.7-1,51.5-1.1,77.2,0.2c52.5,2.6,105,5.5,157.3,10.2c35.8,3.1,71.4,8.1,106.6,15

	c44.3,8.8,88.1,20.5,132.1,30.8c2.7,0.6,7.6,0.9,8.3-0.3c2.6-4.9,4.6-9,11.6-7.6c0.9,0.2,4-5.9,4.5-9.3c0.4-2.3-2-5-3.7-8.9

	c3.6-4.2,9.9-10.4,3.2-18.5c-4-4.8-2.3-7.8,0.6-12.3c4.3-6.6,7.1-14.1,10.8-21.1c2.5-4.8,4.8-12.9,8.2-13.5

	c7.4-1.3,15.6,1.1,23.4,2.5c0.9,0.2,2.3,3.9,1.7,5.2c-4.4,9,3.3,11.3,8.4,15.7c-5.1,7.7,1.5,20.8-12.8,25.3l5.7,4.5l-6.2,29

	l-12.6-1.2l-2.2,2.6c5.7,9.5,9.1,23.2,17.4,27.8c17.6,9.7,37.9,14.7,57.8,21.8c0.4-10.6,7-10.6,14.2-8.3l6.8-11.7l-7.8-5.1

	c9.1-10.7,9.2-12.8,2-25.5c5.3-8.1,12.3-15.5,15.5-24.4c7-19.8,20.4-21.3,35.9-8l-4.2,9.9l9.3,7.5l-6.6,22.3l-6.2,0.7

	c0.4,1.8,0.6,3.8,1.1,5.5s2,3.5,1.7,5c-1.6,8.7-3.6,17.4-5.4,25.9l-15.1-3.9c7.8,19.3,11.2,38.6,33.8,43c3.8,0.7,7.2,3.6,10.8,5.4

	c8.2,3.9,16.3,7.7,23,10.9c4.1-3.8,8.6-9.2,9.5-8.6c12.3,7.3,10.8-6.9,18.9-8.6l-10.6-6c9.1-8.2,7.6-17.2,2.3-25.7

	c6.8-8.7,14.7-16.1,19.2-25.2c8.4-16.7,20.3-14.5,32-6.4c1.2,0.9,2,4.8,1.2,5.9c-5.5,7.4-0.7,11.3,4.4,14.8c-1.2,4-1.8,7.8-3.4,11

	c-2,3.9-4.1,8.6-7.5,10.6c-4.3,2.6-5.7,3.7-1.9,7.7c1.1,1.1,1.4,3.8,1,5.4c-1.9,8-4.1,15.9-6.3,23.9l-13.2-3.8

	c4.2,12,6.9,21.5,10.8,30.5c1.5,3.6,5.1,7,8.5,9.1c11.6,7.3,23.7,14,35.5,21c4.6,2.7,9,5.3,11.9-2.3c0.6-1.5,4.9-3.3,5.9-2.6

	c7.3,5.1,11-1,14.2-5c1.1-1.4-2.5-6.5-4.3-10.6c10.4-6.5,5.3-15.8,2.4-24c6.9-7.8,14.7-14.3,19.4-22.6c9.3-16.4,25.5-17.9,35-3.9

	c-0.6,7-2.6,12.2-1,15.6c2.2,4.7,2.2,7.9-0.1,12.3s-3.8,9.1-5.6,13.6l-7.9-0.9c7.5,11.6-0.3,18.6-4.5,24.8l3.8,14.2l-2.6,1.4

	l-10.3-9l-2.5,1.2c3.2,12.3,6.3,24.7,9.7,36.9c0.3,1,2.1,1.6,3.2,2.3c13.1,8.8,26.1,17.6,39.4,26.2c1.8,1.2,6.5,1.6,6.8,1.1

	c4-9.7,10.2-5.5,15.6-2.4c10.8-9.4,11-10.8,3.5-17.8c8.6-6.9,9.7-13.2,4.4-24.7c7.4-6.8,16.6-12.6,21.8-20.8

	c12-18.9,28.4-14.3,38.7-0.4c-5.4,4.9-8,10.3-2.9,17.3c1,1.4-0.2,5-1.2,7.3c-6.9,15-13.7,30.1-21.3,44.7c-1.6,3.2-6.3,4.8-10.9,8

	c2.8,14.7,2.4,32.7,20.8,43.2c11.2,6.4,20.9,15.3,32.6,24.2c3-12.9,9.7-10,16.1-5.5l11.7-9.4l-8.2-8.6l9.7-4.5l-1.1-18

	c9.3-8.9,18.6-17.8,27.9-26.6c5.7-5.4,12-8.9,19.7-4.4c5.4,3.1,10.4,6.8,16,10.5c-6.2,6.9-10.6,12.7-4.3,20.4c0.7,0.8,0,3.1-0.6,4.5

	c-2.8,5.6-4.9,12-8.9,16.6c-8.9,10.3-15.8,21.2-16.6,37.2l-12-10c-0.6,9.9,2.6,18.6,1.9,26.9c-1.2,14.2,9.3,19.4,17.2,26.9

	c2.7,2.6,5.7,4.7,8.6,7c7.5,6,15,11.9,21.2,16.8c5.5-3.3,12.3-7.7,12.5-7.4c5.5,7.7,10.1,1.6,13-1.7c2-2.2,0.8-7.2,1-10.9

	c4.1-4.9,9.5-11.1,8.9-16.6c-0.6-5.9,1.6-7.7,5-10.2c6.9-5.1,15.3-8.9,20.4-15.4c12.3-15.9,29.5-14.5,39.3,4.4

	c-8.1,10.4-8.3,14.3-1.8,20.4c-7.9,20.1-28,32.4-32.4,54l-12.8-11.1c-0.9,11.5,0.2,21.1,1.5,30.8c0.6,4.4,0.3,10.3,2.9,12.9

	c12.4,11.8,25.9,22.5,38.6,34c6.6,6,11.9,5.2,16.9-1.9c7,8.9,11.7,1.5,15.7-2.5c2-2,1-7,1.6-12.1l11.4-2.9v-15.2

	c11.2-8.4,25.7-11.4,33.2-24.9c2.1-3.7,9.7-7.7,13.1-6.5c7.9,2.6,14.9,8,21.8,13c1.4,1,1.3,5.7,0.2,8c-1.1,2.3-4.2,3.8-6.4,5.6

	l8.5,13.6l-41.8,47.8l-13.2-10.2c0,14.7-0.2,27.6,0.2,40.6c0.1,1.8,2.6,3.8,4.3,5.3c14.7,12.9,29.5,25.5,44.1,38.5

	c20.9,18.6,41.5,37.5,62.5,56c30.8,27.1,61.9,53.9,92.8,80.9c24,21.1,47.7,42.6,72,63.5c38.6,33,77.4,65.8,116.4,98.4

	c37.4,31.3,74.6,62.9,112.7,93.3c58,46.3,115.9,92.9,175.4,137.2c78.9,58.6,158.1,117,239.5,172c77.2,52.1,157.4,99.8,236.5,149

	c16.5,10.3,34.2,18.7,51.4,28C3905,1526.4,3905,1529.8,3905,1533.2z M1885.6,1342.3c0.6,5.3-9.6,11.3-0.5,15.5

	c8.7,4,16.3,15.5,28.4,7.5c-1.8,6.2,0.3,10.1,6.5,12.2c3.1,1,6,2.8,9,4.3c13.8,6.7,17.8,4.2,18.1-11.1l-0.3,0.4l35.4,16.1l-1.4,3.2

	l-29.1-13.5c-6.5,9.4-4.3,15.2,5.6,18.8c7.7,2.8,15.2,6.2,22.9,8c3.7,2.9,6.9,6.7,11.1,8.5c31.4,14.3,62.8,28.3,94.4,42.1

	c16.2,7.1,32.6,13.4,50.2,20.6l0.7-14l-111.5-48.9l-0.1,0.2c3-0.3,6.5-1.6,8.9-0.6c20.1,8.8,40,18.2,60.1,27

	c13.1,5.7,26.5,10.8,42.3,17.1c1-11.8,2.3-21.5,2.3-31.3c0-2.8-3.1-7.1-5.9-8.3c-57.5-25.6-115.1-51.2-172.7-76.6

	c-38.6-17.1-77.3-34-116-50.8c-2.6-1.2-6.3,0-9.1-0.8s-5.4-2.6-7.9-4.2c-2-1.3-3.5-3.9-5.6-4.6c-12-4-24.1-7.5-37.4-9.3

	c1.8,2.2,3.1,5,5.3,6.4c26.3,16.8,52.7,33.6,79.3,49.9c12.5,7.6,25.6,14.1,38.4,21.2c0.8,0.5,0.9,2.2,1.4,3.4l-0.4,0.5

	L1885.6,1342.3z M1606.5,1623.2c-8.2-3.2-16.4-6.4-24.6-9.5c-16.9-6.1-33.9-12-52-18.4c-1.6,4.9-3.6,9.3-4.5,14

	c-0.3,1.6,1.6,4.8,3.2,5.4c23,8.4,46,16.5,69.1,24.7c0.9,0.3,2-0.2,3-0.3c17.8,6.3,35.5,12.5,53.3,18.7c2.2,0.8,4.4,1.3,6.7,1.9

	c2-12.1-3.5-22-14.1-25.2C1633.2,1630.4,1619.8,1626.9,1606.5,1623.2L1606.5,1623.2z M671.5,211.4c7.7-1.9,15.5-3.5,23.1-5.8

	c20-6,39.9-12.4,59.9-18.6l-5.7-18.2c3.1,4.3,5.6,9.3,9.5,12.6c2.4,2.1,7.4,2.8,10.6,1.9c48.9-13,97.7-26.6,146.6-39.6

	c25.5-6.8,51.1-13.2,76.9-19c44.1-9.9,88.2-19.4,132.4-28.4c24.3-4.9,48.7-9,73.3-12.3c29.4-3.9,58.9-7.1,88.4-9.9

	c33.2-3.2,66.4-6.1,99.7-8.7c14.1-1.1,28.2-1.3,42.3-1.5c7.1-0.1,11-2.3,10.3-10c-0.6-6.5-0.5-13.1-10.2-12.5c-31,2-62,3.5-93,5.7

	c-24.5,1.8-49.1,3.9-73.5,6.7c-26.8,3-53.5,6.3-80.1,10.5c-33.7,5.4-67.5,10.9-100.9,18c-56.5,12-112.9,24.7-169,38.4

	c-52.1,12.7-103.8,27.2-155.7,40.8c-3.9,1-9.7,0.4-7.5,7.5c-3.2-0.7-6.7-2.6-9.4-1.9c-26.9,7.6-53.7,15.7-80.5,23.6l-86.6,26.7

	l12.1,22.8L671.5,211.4L671.5,211.4z M1763.6,1683.4c-2.9,6.3,1.7,7.8,5.9,8.9c21.7,5.5,43.4,10.8,65,16.3

	c9.8,2.5,19.4,5.2,31.4,8.5c0-7.2,0.5-13.7-0.3-20.1c-0.3-2-3.6-4.7-5.9-5.3c-28.2-7.2-56.7-13.5-84.7-21.3c-7.1-2-8.2,0.6-9.7,5.4

	c1.7-5.5,0.7-7.7-5.9-9.3c-23-5.6-45.8-12.6-69.8-19.4c2.4,7.6,4,14.3,6.6,20.6c0.9,2.2,4.1,3.9,6.7,4.7c17,5.4,34,10.7,51.2,15.3

	C1756.7,1688.4,1760.4,1684.9,1763.6,1683.4L1763.6,1683.4z M2755.6,679.1c-4.4,8.2-0.1,12.2,6.2,17.6c21.2,17.7,41.3,36.6,62,54.9

	c28.2,25,56.5,49.8,84.9,74.6c7.8,6.8,16.1,13.1,24.2,19.6c6.4,6.6,12.4,13.7,19.3,19.7c23.9,21,48,41.8,72.3,62.4

	c28.6,24.3,57.6,48.2,86.3,72.3c4.4,3.7,8.8,7.3,12.8,11.3c4.3,4.3,8.7,4.2,13.6,1.6l-2.9,8l64.2,51.7l23-11

	c-23-18.8-45-36.8-67.3-54.5c-1.8-1.4-5.2-0.9-7.8-1.2c-2.2-3.8-3.5-8.6-6.7-11.3c-48.2-40.9-96.3-81.9-144.5-122.8

	c-14.4-12.2-28.7-24.6-43.1-36.7c-1.3-1.1-3.5-1-5.3-1.5c-4.6-5.2-8.7-11-13.8-15.6c-45.5-40.2-90.9-80.3-136.4-120.5

	c-6.8-6-13.1-12.9-20.6-18c-4.4-3-10.7-3.4-16.1-5c3.1-3.6,3.5-6.7-0.6-10.2c-20.3-17.7-40.1-36-61-53c-5.1-4.2-14.9-2.7-19.8-7

	c-7.3-6.4-12.2-2.5-19.3,0.5l88,78.8L2755.6,679.1L2755.6,679.1z M2187.1,577.3c1.1-16.8,1.6-33.7,2.4-50.6

	c1.4-27.9,2.7-55.9,4.3-83.9c1.8-31.6,4.1-63.2,5.4-94.8c0.3-8.5-2.2-17.1-3.2-24.7l-13.2-3.1c11-29.1,5.8-34.8-21.3-46.3

	c-19.2,11.6-17.6,33.9-26.2,50.5c-9.6,3-18-8.4-29.3-1.3c-0.9-2.8-1.6-5.6-2.1-8.5c-1.4-10.9-2.6-21.9-3.4-32.9

	c-0.1-2.2,1.9-4.8,3.4-6.8c3-4,9.3-7.8,9.1-11.4c-0.4-8.2-0.2-17.8-10-22.5c-15.3-7.4-30.5-15-45.3-22.3

	c-17.4,15.4-16.5,37-23.3,55.4l-30.3-2.5c-2.6-11.8-5.7-25.4-8.2-39.1c-0.3-1.6,2.6-3.8,4.1-5.7c3.2-4,9.7-8.9,8.9-12

	c-1.8-7.5-5.3-17.5-11.2-20.6c-15.9-8.3-33.3-13.5-50.3-20l-16.8,36.9c7.1,6-1.6,13.3-1.2,22.3c-6.9-0.8-13.1-1.5-19.3-2.2

	c-1.3-0.2-2.7-0.2-4,0c-8.6,2-8.5,2-10.8-7.8c-1.1-5.6-2.6-11.1-4.6-16.4c-3.3-8.4-5.7-15.9,4-22.4c2.4-1.6,4.1-7.6,3.1-10.6

	c-3.3-9.2-5.4-18.4-18.7-21.1c-49-9.8-97.4-22.3-146.4-31.6c-34.7-6.6-70-12-105.2-14c-57.9-3.3-116-3.5-174-4.8

	c-2.6-0.1-5.3,2.1-8.1,3.3c-3.5-7.8-11.5-3.3-17.5-3.1c-16.8,0.5-33.5,2.1-50.3,3.7c-32.7,3.2-65.4,6.6-98.1,10

	c-11.3,1.2-22.6,2.6-33.9,4.3c-8.8,1.3-16.2,12.5-14.8,21.4c0.6,3.5,0.6,7.1,0.9,11.7c-11.3-4.2-14.9,3.3-19.8,11

	c-18.9,29.4-24.7,63-32.7,96c-9.9,41.2-23,81.9-29,123.6c-3.1,21.2-12.9,39.5-16.2,60.2c-3.4,21.4-9.1,42.6-14.1,63.7

	s-10.8,41.9-15.8,62.9c-13.8,57.3-27.3,114.7-41,172.1c-13.4,56.5-27,112.9-40.6,169.3c-7,29.1-15.9,57.9-21,87.4

	c-1.9,10.7-5.3,20.4-7.9,30.6c-16.4,64.8-31,130.1-46.4,195.1c-5.4,22.8-10.5,45.6-17.2,68c-2.8,9.1-0.4,12.4,7.2,16.2

	c65.2,32.3,130.1,65,195.3,97.3c47.2,23.5,94,47.5,141.8,69.5c60.3,27.6,121.5,53.2,182.2,80.1c8.2,3.6,10-1.3,12.6-6.6

	c39.4-79.4,78.3-159.1,118.6-238c8.7-17.1,8.2-34.9,11-52.4c2.4-14.8,2.4-29.8,3.8-44.8c0.2-1.7,2.9-4.3,4.5-4.4

	c14.8-0.5,29.4-1.1,43.8,5.3c6.8,3,18.1,4,23.5,0.3c10.6-7.3,21.3-5.3,32.1-5.5c5.9-0.2,9.8-1.3,12.7-7

	c9.9-19.5,28.6-19.5,45.8-17.3c25.9,3.3,52,7.6,77,15c47.9,14.2,95.3,30.2,142.4,46.6c51.4,17.9,102.4,37.2,153.6,55.8

	c2.1,0.8,4.3,1.2,7.9,2.2c-0.8-38.4,7.3-75.5,3.3-114c0.8-2.6,2.8-6.5,3.1-10.6c2.8-43,5.5-86.1,8.2-129.1c0.8-13.5,1.4-27,2.1-40.5

	c2.2-44.2,4.3-88.4,6.5-132.5c1.8-35.4,3.8-70.7,5.8-106.1c2-37,4-74.1,6.2-111.1c1.2-19.8,2.9-39.7,3.9-59.5

	c0.3-5.1-1.4-10.3-2.3-16.3C2184.4,583.7,2186.9,580.6,2187.1,577.3z M2576.1,678.8l7-41.8c21.1-2.2,20.2-4.3,19.7-25.9

	c-0.1-1.6-0.9-3.2-2.1-4.3c-15.8-14-31.7-27.9-47.8-41.5c-1.4-1.2-5.2-1.1-6.9,0c-15.6,9.8-24.6,25.1-33.7,40.4l-30.1-12.3l4.9-38.9

	c7.3-4.9,16.4-7.8,17.4-12.4c1.9-8.7,3.1-19-6.8-26.5c-13.9-10.5-26.7-22.3-40.1-33.5c-1.4-1.1-4.5-2.3-5.2-1.7

	c-6.2,5.8-12.7,11.4-17.7,18.1c-5.6,7.5-9.5,16.3-14.6,24.1c-0.8,1.2-4.7,1.3-6.6,0.5c-7.9-3.3-15.5-7.1-23.2-10.8

	c0.4-6.3,0.6-13.2,1.2-20.2c0.6-6.7,1.5-13.2,2.3-19.7c14.4-4,22-17.1,15.1-29.6c-3.7-6.7-12.2-10.9-18.7-16.1

	c-8.4-6.6-17-12.9-25.4-19.5c-5.1-4.1-9.3-4.4-13.7,1.3c-2,2.6-5.6,3.9-7.3,5l-17.6,36.9l-27.8-11v-37.3c6.3-5.5,13.9-8.8,14.8-13.5

	c1.8-9,2.7-19.1-8.2-25.6c-11.1-6.7-21-15.3-31.7-22.7c-13.4-9.3-16.6-7.7-26.4,5.9c-10.1,14-4.8,27.5-0.8,41

	c13.1,44,26.9,87.9,40.4,131.8c15.7,51.6,31.4,103.3,47.1,154.9c0.6,1.9,0.6,4.6,1.9,5.6c19.1,14,7.5,37,16.3,54.6

	c8.7,17.3,12.1,37.2,17.7,55.9c2.8,9.2,5.4,18.5,8.1,27.7c0.3,0.9,0.1,2.6,0.6,2.8c13.4,6.3,9.7,17.4,10.4,28.9

	c0.8,13.5,7.3,26.8,11.3,40.1c14.3,47.4,28.3,94.9,43,142.2c16,51.5,32.7,102.8,48.9,154.2c6,18.9,11.7,38,17.3,57.1

	c4.5,15.3,8.4,30.7,12.8,46.1c4.6,16.3,9.3,32.5,14.3,48.7c0.8,2.3,2.4,4.3,4.5,5.6c9.8,5.3,11.2,12.6,8,23.2

	c-1.9,6.1,0.3,14.1,2.3,20.7c6.1,20.4,13.2,40.4,19.4,60.7c2.1,6.9,5.2,9.6,12.6,11.6c30.6,8,60.7,17.7,91.1,26

	c31.2,8.5,62.6,16.5,93.9,24.4c27,6.7,54.1,13.3,81.2,19.3c21.8,4.8,43.9,8.8,65.8,13.3c22.9,4.7,45.6,10.2,68.5,14.4

	c18.3,3.4,36.8,5,55.2,8c19.6,3.2,39.1,7.4,58.8,10.3c13.5,2,27.3,2.2,40.8,3.9c14.1,1.7,28.1,4.4,42.1,6.4c7.2,1,14.4,1.8,21.6,2.1

	c8.7,0.4,17.5,0.1,27.4,0.1c-0.4-3-1.1-6.1-1.9-9c-5.3-15.4-10.9-30.6-16.3-46c-10-28.4-19.6-57-29.9-85.4

	c-21.7-60.1-43.8-120-65.4-180.1c-13.5-37.8-26.2-75.9-39.4-113.8c-10.6-30.3-22-60.4-31.8-90.9c-3.4-10.7-12.8-6.4-15.8-8.9

	c0.5-6.2,1.9-10.7,1-14.6c-3-12.6-5.4-25.6-10.8-37.1c-3.5-7.5-11.4-13.2-17.9-19.1c-9.6-8.8-19.9-17-29.6-25.7

	c-11.5-10.4-22.8-21.1-33.9-31.8c-21.2-20.4-42.3-40.9-63.4-61.3c-18.4-17.8-37-35.6-55.4-53.5c-25.5-24.7-50.6-49.8-76.4-74.2

	c-27.2-25.8-54.9-51-82.4-76.4c-8.6-7.9-16.1-8.9-25.8,0.2c-9.9,9.3-17.6,20.9-26.9,32.2L2576.1,678.8z M2492.3,1393.1

	c-1.9-6.9-4.3-13.4-11.4-17.3c-6.8-3.7-6.8-10-4.6-17c1.6-5,3-11,1.7-15.8c-14.4-52.7-29.5-105.2-44.1-157.8

	c-20.5-74.5-40.9-149-61.3-223.5c-8.9-32.4-17.7-64.8-26.9-97c-0.9-3.1-4.7-5.3-7.1-8c-5.4-6-6.7-13-4.7-20.8c0.8-3,1.9-6.5,1.2-9.3

	c-8.5-31.8-17.2-63.6-26.4-95.3c-1.6-5.6-6.7-10-9.6-15.3c-1.9-3.5-4.8-8.2-3.8-11.4c5.2-17.3-3.4-32.3-7.5-47.7

	c-15.9-59.8-32.8-119.2-49.3-178.8c-3-10.8-6.1-21.5-10.7-32.1c-2.4,47.7-8.8,95.1-6.1,142.6c-1.3,5.1-3.4,10.1-3.7,15.3

	c-1.7,22.5-3,45-4.2,67.5c-0.9,16.8-1.2,33.6-2.1,50.4c-1.9,34.3-4,68.5-6,102.8c-0.8,14.5-1.5,28.9-2.1,43.4

	c-2,45.4-4.1,90.9-6.2,136.3c-1.2,26.2-2.4,52.4-3.8,78.6c-1.7,32.9-3.8,65.8-5.3,98.7c-0.2,5.1,1.6,10.3,2,12.6

	c-1.7,7.9-3.6,13.5-4.1,19.2c-1.7,21.5-2.9,43-4.2,64.5c-0.8,12.7-1.5,25.5-1.6,38.2c0,2,3.1,5,5.3,5.8c30.5,11.4,61,22.8,91.7,33.7

	c61.4,21.7,122.9,43.2,184.5,64.6c13.1,4.5,26.4,8.3,41.2,13C2499,1418.2,2495.8,1405.6,2492.3,1393.1z M3082.7,1057.7l-2,1.1

	l196.4,535.8c84.4,0,169.1,0.4,253.8-0.1c83.9-0.5,166.6-12.1,250.6-26.8c-18-11.1-34.9-21.2-51.5-31.9

	c-53-34.2-106.5-67.4-158.5-103c-60.4-41.3-119.5-84.3-178.8-127.2c-24.4-17.6-47.7-36.7-71.6-55c-1.9-1.4-4.6-1.9-7.1-2.2

	c-2.4-0.2-4.8-0.2-7.2,0l1.6-6.4L3082.7,1057.7z M880.4,1280.7c5.7-21.9,11.8-44.8,17.6-67.7c16-63.1,32.5-126.1,47.2-189.6

	c2.2-9.4,4.5-18.5,6.9-27.9c30.9-118,60.4-236.5,90.1-354.8c14.4-57.5,28.6-115.1,42.9-172.6c4.8-19.1,12.9-38,14.1-57.4

	c1-16.5,8.7-29.7,12.4-44.6c1.3-5.2,1.9-10.6,2.8-16l-3-1.2c-6.4,11.1-12.8,22.1-19,33.3c-35,62.5-69.7,125-104.3,187.6

	c-16.4,29.6-32.3,59.5-48.1,89.5c-1.8,3.3-3.3,8.1-2.3,11.4c2.9,9.6-2.8,16.5-8.9,19.6c-7.8,3.9-12,9.9-15.6,16.5

	c-23.4,42.2-46.2,84.6-69.5,126.8c-30.7,55.7-61.8,111.2-92.6,166.8c-18.7,33.7-37.1,67.5-55.8,101.2c-15.3,27.5-30.5,55-45.8,82.5

	c-0.6,1.1-1.1,2.3-1.6,3.3L880.4,1280.7z M1872.1,1618.6c2.7-38.7,5.8-77.4,7.8-116.1c1.6-31.4,1.8-62.9,2.9-94.4

	c0.1-3.5,1.8-7,3.3-12.2c-5.5-3.2-12.5-7.8-19.9-11.6c-55.3-28.2-108.9-59-158.5-96.4c-9.6-7.2-19.4-14.3-28-22.5

	c-3.2-3-3.7-9.2-4.7-14c-1.4-6.6-5.5-9-11.7-8.6c-10.6,0.8-21.1,1.9-33,3c-1.4,11.1-3.8,22.3-4,33.4c-0.3,17.7-5.3,33.4-13.4,49

	c-18.1,34.7-17.5,34.9-4.8,71.9c5.8,16.9,10.9,34,16.7,50.9c0.4,1.3,3.6,1.6,4.3,1.9c0.7,5.3,0.6,10.2,2,14.7

	c16.8,52.4,33.9,104.7,50.6,157.2c2.5,8.1,6.8,11.6,15,13.7c45.7,11.8,91.1,24.3,136.7,36.4c10.9,2.9,21.8,5.4,33.8,8.3

	C1868.9,1660.2,1870.5,1639.4,1872.1,1618.6z M1903.1,1424.7c0,4.3,0.2,9.3-0.1,14.3c-0.7,17.9-0.7,35.9-2.5,53.6

	c-2.6,26,7,49.6,13,73.9c10.6,42.4,21.6,84.7,32.4,127.1c1.1,4.6,1.6,7.8,8.1,9.1c37.7,7.4,75.1,15.9,112.7,23.7

	c5,1,10.8,3.1,13.5-5.6c16.7-52.6,34.8-104.7,50.4-157.6c4.7-16.1,3-34.1,3.5-51.2c0.1-2.3-4.1-5.7-7-7

	c-53.5-23.5-107-46.8-160.6-70.2c-8.6-3.8-17.2-7.5-25.4-12C1928.4,1415.8,1916.2,1419,1903.1,1424.7L1903.1,1424.7z M1652.2,1626.1

	c-8.3-26.6-15.6-50.5-23.2-74.3c-7.3-22.6-14.6-45.2-22.3-67.7c-1.6-4.8-5-8.9-7.6-13.3c-0.5-0.9-1.6-1.7-1.5-2.5

	c2.7-25.2-14.2-45.2-19-68.9l-84.3,172.6L1652.2,1626.1z M2187.5,1455.4c-0.8,21.1-0.8,21.2,26.4,31.3

	c64.4,23.8,129,47.2,193.3,71.4c46.8,17.6,93.2,36.1,139.8,54.2c0.9,0.3,1.9,0.1,5,0.3c-3.3-11.9-6-23.1-9.9-33.9

	c-0.9-2.5-6-3.7-9.4-4.9c-50.3-18.4-101-36-151-55.3c-53.4-20.6-106.1-43.4-159.5-64c-9.9-3.8-22.2-1.8-33.2-2.5

	C2188.4,1453,2187.9,1454.2,2187.5,1455.4z M1501.8,61.8c2.9,0,5.8-2,9.2-3.3c0.3,0.2,2.3,2.9,4.6,3.2c8.7,1,17.4,1.2,26.1,1.8

	c43.5,3.3,87,5.9,130.4,10.3c33.5,3.5,67.1,7.9,100.1,14.5c40.5,8.2,80.3,19.2,120.5,28.9c1,0.2,1.9,1,2.8,0.9

	c3.6-0.3,7.2-0.7,10.8-1.1c-2.3-3.1-4.5-6.2-6.8-9.2c-1.8-2.5-3.7-4.9-5.7-7.2c-2.1-2.2-4.3-5.1-7-5.7

	c-41.3-9.7-82.4-20.6-124.1-28.3c-43.1-7.9-86.6-13.8-130.2-18.3c-37.1-3.8-74.5-5-111.8-6.4c-23.2-0.9-46.5,0.2-69.8-0.1

	c-9.2-0.1-13.9,1.8-9.4,12c0.9,2,0.3,4.6,0.5,8C1462.6,62,1482.2,62.1,1501.8,61.8z M3097.6,1618.7l119.6,13.7

	c1.1-10.3,2.3-19.2,2.6-28.1c0-1.4-4.1-3.9-6.5-4.2c-34.8-4.3-69.6-8.3-104.5-12.3c-3.3-0.4-6.7-0.1-11.2-0.1L3097.6,1618.7z

	 M3091,1586.3l-121.9-20.4c0,8.6-0.7,17.1,0.4,25.4c0.4,2.9,5,6.9,8.2,7.4c36.1,6.3,72.4,12.1,110.8,18.4L3091,1586.3z

	 M2962.3,1594.8c0.7-9.2,1.6-16.9,1.7-24.5c0-2.3-2.5-6.2-4.4-6.6c-36.8-7.8-73.7-15.2-110.5-22.7c-0.9-0.2-2,0.3-4,0.7

	c0,7.9-0.5,16,0.3,24c0.3,2.5,4,6,6.7,6.7c22.3,5.1,44.7,9.7,67.1,14.4c11.4,2.4,22.7,4.9,34.1,7.2

	C2955.8,1594.5,2958.4,1594.5,2962.3,1594.8L2962.3,1594.8z M2839.8,1569.7c0.2-3.3,0.4-6.3,0.7-9.2c1.7-20.6,1.7-20.6-19.4-25.9

	c-29-7.3-58-14.6-87-21.8c-1.9-0.5-4-0.1-6.3-0.1c-1.1,7.2-2.9,14.4-2.9,21.5c0,3.1,2.9,8.4,5.5,9

	C2766.5,1552.4,2802.8,1560.9,2839.8,1569.7L2839.8,1569.7z M3479,1611.8h-119.3l2.5,29.5h113.5L3479,1611.8z M3494.4,1642.6

	l83.8-4.8c25.9-1.5,27.5-3.4,25.7-31.3l-114,5.2L3494.4,1642.6z M2613.6,1510.4c34.8,9.8,68.2,19.2,101.5,28.7

	c6.1,1.8,8.8-0.4,9-6.8c0.2-5.9,1.6-11.8,1.4-17.7c-0.1-2-3.2-4.9-5.5-5.6c-25.7-7.2-51.5-14-77.3-20.9c-7.3-2-14.7-4-24.3-6.7

	L2613.6,1510.4z M3618.2,1605.2l4.6,30c23.7-2.9,47.5-5.7,71.2-8.7c6.6-0.8,13.3-1.8,19.9-2.6c7.7-0.9,11.1-5.1,10.7-12.9

	c-0.2-5.3,0.6-10.6,1.1-17.6L3618.2,1605.2z M2400.8,1561.3l-210.4-79.1c-5.8,15.3,5.7,17.2,14.9,20.7l146.5,55.7l2.6-7.4

	c0.6,0.1,1.1,0.3,1.7,0.6c-0.9,6.3,1.5,9.4,8.1,11.2c11.1,3.1,21.8,7.7,32.8,11.7L2400.8,1561.3z M2414.9,1417.5

	c-1.1,7-2.8,13.5-2.7,20.1c0,3,2.9,7.6,5.6,8.6c27.8,10,55.8,19.4,84.5,29.2c2.1-8.5,4.2-15.7,5.3-23c0.3-2.1-1.9-6.1-3.8-6.7

	c-28.6-9.8-57.4-19.1-86.2-28.5C2417,1417,2416.2,1417.3,2414.9,1417.5L2414.9,1417.5z M2321.7,1412.2l74.9,27.7

	c6.3,2.3,10,1.7,10-6.6c0-6.1,1.9-12.3,3.1-19l-84.9-30.2L2321.7,1412.2z M2312.8,1407.8c1.4-1.3,1.8-1.5,1.8-1.8

	c5.1-23.6,5.1-23.6-18.4-32.4c-17.9-6.8-35.9-13.5-54.3-20.4c-1.1,7.6-2.9,14.2-2.8,20.7c0.1,3.3,2.9,8.4,5.7,9.5

	c20.3,8.4,40.9,16,61.4,23.7C2308.3,1407.9,2310.8,1407.6,2312.8,1407.8L2312.8,1407.8z M3620.7,1358.5

	c-26.3-18-50.8-34.9-75.7-51.3c-1.9-1.3-6.7,0.5-9.4,2.1c-4.4,2.7-8.1,6.4-13.1,10.4c24.9,17.1,48.3,33.2,71.9,48.9

	c2,1.4,6.2,0.9,8.8-0.2C3608.6,1366.1,3613.5,1362.7,3620.7,1358.5L3620.7,1358.5z M3608.1,1378.7c24.8,16.4,47.9,31.8,71.4,46.6

	c2.6,1.7,7.5,1.4,10.7,0.2c5.5-2.2,10.5-5.7,17.1-9.6c-10.5-7.1-19.9-13.8-29.6-20.1c-14.6-9.5-29.5-18.5-43.8-28.5

	c-5.7-4-9.1-4.2-13.6,1C3617.2,1372.1,3612.9,1374.7,3608.1,1378.7L3608.1,1378.7z M3439.4,1259.1c7.6,5.8,14.2,11.1,21.1,16.1

	c15.9,11.5,31.9,23,48.2,34.1c2.4,1.6,6.9,1.8,9.6,0.7c5.8-2.4,11-6.1,17.5-9.8l-77.4-55.8L3439.4,1259.1z M3715.4,1420.9

	l-18.6,15.7c23.6,14.7,46.4,28.7,68.9,43c5.6,3.5,10.3,3.5,15.7,0.2c5-3,10.4-5.4,15.9-8.3L3715.4,1420.9z M54.6,1101l2.2,22.3

	c27.1,0.6,53.3,1.4,79.4,1.4c2.8,0,7.1-4.3,8.2-7.4c1.4-4.3,0.4-9.3,0.4-16.3H54.6z M3224.6,1064.1l-18.8,15l69.9,55.7l20.6-13.8

	L3224.6,1064.1z M3378.1,1184.5l-18.3,15.1c12.7,9.8,24.2,18.7,35.8,27.4c9.3,7,19.6,12.8,28,20.8c6.7,6.3,11.6,4.2,17.5,0.6

	c3.7-2.2,7.2-4.7,12.1-7.8L3378.1,1184.5z M3805.8,1476.5l-18.5,15.6c7.5,4.7,13.8,8.9,20.3,12.7c15.7,9,31.6,17.4,47,26.9

	c6.6,4,11.8,4.6,18.1,0.2c4.3-3,9.4-4.8,15.3-7.8L3805.8,1476.5z M3281,1138.6c22.2,17.4,43,34.4,64.7,50.1

	c3.3,2.4,10.9-0.3,16.3-1.6c3.3-0.8,6.2-3.5,10.9-6.4c-5.4-4.3-10.7-8.4-16-12.4c-16.9-13.1-34.2-25.8-50.7-39.4

	c-6.3-5.2-10.1-3.9-14.9,1.3C3288.6,1133,3285.2,1135.2,3281,1138.6L3281,1138.6z M244.5,1110l-88.5-7.3c-0.2,1.1-0.3,2.1-0.4,3.2

	c0.9,6.2,0,14,3.5,18.2c2.8,3.3,10.8,2.6,16.6,3.1c21.8,2,43.6,3.8,65.9,5.7L244.5,1110z M1893.3,1623.3

	c-1.1,19.2-1.8,38.4-2.9,57.6c-0.3,5.6,1.2,8.7,7.4,9.5c8.5,1.1,16.8,3.3,28.1,5.7l-26.9-108.6h-3.2

	C1894.9,1599.3,1893.9,1611.3,1893.3,1623.3z M3281.5,1606c3.7,10.3,6.8,19.4,10.4,28.3c0.6,1.6,3.3,3.2,5.1,3.3

	c15.3,1.4,30.6,2.7,45.9,3.3c1.7,0.1,5-4.1,5.2-6.6c0.7-7.7,0.3-15.4,0.3-24.2L3281.5,1606z M338.9,1122.8l-85.3-11.5l3,22.4

	l80.4,9.8L338.9,1122.8z M3799.3,1584c-1.9-2.3-7.9-2.2-11.7-1.6c-14.7,2.3-29.4,5.3-46,8.5l5,28.3l66.7-13.2

	C3808.2,1597.7,3804.6,1590.1,3799.3,1584z M349.9,1126.8c-0.2,2.5-0.3,4.1-0.5,5.8c-1.1,9.1,0.4,14.6,11.8,16

	c20.6,2.5,41.1,7.2,61.6,10.6c1.9,0.3,5.3-1.8,6.2-3.7c4-8.6,0-15.4-9.5-17.3c-18.9-3.8-37.7-7.7-56.6-11.3

	C359.1,1126.2,355,1126.8,349.9,1126.8L349.9,1126.8z M2224.3,1376.3c0.9,0.4,1.8,0.7,2.7,0.8c2.3-4.5,5.3-8.8,6.4-13.6

	c1-4.3,1.5-12.4-0.2-13.1c-17-7.2-34.5-13.3-53.4-20.2l-1.7,27.9C2193.4,1364.1,2208.8,1370.2,2224.3,1376.3z M439,1145.9

	c-1.2,20.5,14.9,19.7,27.9,22.6s25.8,5.9,38.7,9.2c8.2,2,12.9,0.5,11.4-9.3c-0.3-1.9,0.4-3.9,0.9-7.4l-78.4-19.2

	C439.2,1144.6,439.1,1145.2,439,1145.9z M2034.2,1277.7c-4.3,23.9-4.3,23.8,18.1,31.9c7.8,2.8,15.7,5.6,23.3,8.9

	c5.7,2.4,8.5,1.4,9.8-5c1.1-5.4,3.5-10.5,5.7-16.8l-55.6-20.9C2034.6,1277.2,2034.2,1277.4,2034.2,1277.7z M2144.2,1340.7

	c1.1-24.3,1.1-24.2-22.1-32.3c-8.1-2.8-16.2-6-25-9.3c-1,6.2-0.9,12.1-2.9,17.2c-3,7.6,0.7,10,6.8,12.2c14,5,27.9,10.5,42.3,16

	C2143.8,1343.2,2144,1342,2144.2,1340.7z M1979.2,1254.4c-1.8,7.8-3.9,14.3-4.5,21c-0.2,2.1,3.1,5.7,5.6,6.7

	c11,4.6,22.2,9,33.7,12.6c2.1,0.7,6.8-1.5,8-3.7c2.9-5.1,4.4-11,7-18L1979.2,1254.4L1979.2,1254.4z M1923.5,1261

	c11.5,4.2,22.9,8.9,34.7,12.4c2.1,0.6,6.9-2.4,8.2-4.9c7.8-15.4,7.6-15.6-8.6-21.4c-9.4-3.4-18.7-6.7-28.8-10.3L1923.5,1261z

	 M1889.2,1698.8v23.6c8.9,2.3,19.2,5.1,29.7,7.3c1.8,0.3,5.4-2.1,6.2-4c2-4.9,2.8-10.3,4.5-17.2L1889.2,1698.8z M1370.4,1532.5

	c1.6,5.2,1.6,10.3,3.6,11.4c22.6,11.2,45.6,21.8,68.4,32.5c6.5-10.6,6.2-11.8-4.4-16.2C1416.8,1551.4,1395.5,1542.8,1370.4,1532.5

	L1370.4,1532.5z M1887.2,1223.1c-1.4,1.1-1.8,1.3-1.9,1.6c-5.3,20-5.3,20,14.9,27.3c4.1,1.5,8.1,3.1,13,5.1l9.7-22.3L1887.2,1223.1

	L1887.2,1223.1z M2579.5,1469.8c7.1,33.3,7.1,33.3,28,37.6c1.2-8,2.7-15.8,3.4-23.8c0.1-1.7-2.1-4.8-3.9-5.4

	C2598.1,1475.1,2589,1472.6,2579.5,1469.8L2579.5,1469.8z M694.4,1216.2c-2.6,9-1.7,13.8,6.6,15.5c5,1,9.6,3.9,14.6,5.4

	c14.8,4.4,29.7,8.6,47.5,13.7c-2.5-4.6-3.4-8.9-5.6-9.9C736.8,1232.5,716,1224.6,694.4,1216.2L694.4,1216.2z M1842.3,1232.3

	c6.5,2.3,12.8,5.1,19.4,6.6c7,1.6,13.9-4.9,15.6-13.8c1.5-8.1-5.9-6.8-9.9-8.3c-6.1-2.4-12.7-3.6-19.9-5.6L1842.3,1232.3z

	 M680.5,1225.5c2.7-9.9,1.3-14.8-7.7-16.8c-8.5-2-16.7-4.8-24.5-8.5c-8.6-3.9-10,2.6-12,7.5c-2.8,7,2.9,6.1,7.1,7.2

	C655.7,1218.1,667.9,1221.9,680.5,1225.5L680.5,1225.5z M1526.2,1594.6l-35.5-13.7c-9,13.3-9,13.2,4.1,19.2

	c8.3,3.8,16.7,7.6,25.5,11.6L1526.2,1594.6z M526.7,1164.7c1.1,16.6,15,28.4,29.9,24.9c3.9-0.9,6.4-7.5,9.6-11.5

	c-2.4-1.8-4.5-4.5-7.1-5.4c-9.1-3-18.4-5.4-27.6-8C530.2,1164.4,528.8,1164.7,526.7,1164.7L526.7,1164.7z M2443.9,1577.1l-42.1-15.7

	l-1.1,15l39.5,15L2443.9,1577.1z M2448.1,1578.9c-5.5,10.7-2.4,15.5,7.2,18.2c7.3,2,14.1,5.9,21.3,8.2c2.4,0.8,5.6-1,8.5-1.6

	c-0.8-3.9-0.5-10.3-2.7-11.3C2471.4,1587.2,2459.8,1583.4,2448.1,1578.9L2448.1,1578.9z M2525.5,1624.7c2.5-15.5,2.5-15.5-11.1-20.5

	c-7.4-2.7-14.8-5.4-22.2-8.1c-0.5-0.2-1.3,0.3-2.2,0.5c-2.2,8.6-2.1,15,9.1,17.6C2508.1,1616.3,2516.6,1621,2525.5,1624.7

	L2525.5,1624.7z M1292.5,1501.4c22.5,14.5,47.1,25.4,71.1,37.7c3.4-4.3,5.5-7.7-1.4-10.7c-22-9.8-43.8-19.9-65.8-29.8

	c-0.7-0.3-1.8,0.2-2.7,0.4L1292.5,1501.4L1292.5,1501.4z M1841.1,1209.2c-7.4-2.2-14-5.4-20.6-5.6c-9.5-0.3-6.5,10-9.6,15.2

	c-0.3,0.6,3.8,5.2,6.3,5.8C1832.8,1228.5,1832.9,1228.3,1841.1,1209.2L1841.1,1209.2z M2674.2,1691.6c1.7-17.5,1.7-17.5-25.1-27.5

	C2644.1,1679.4,2652.2,1683.2,2674.2,1691.6L2674.2,1691.6z M1876.1,1352.9c7.5-12.5,7.6-12.6-4.3-19.7c-4.6-2.7-9.3-5.2-13.9-7.8

	c-8,11.9-7.8,12.9,3.4,19.2L1876.1,1352.9L1876.1,1352.9z M1830.1,1308.4c-8.9,18.1-7.8,12.7,9.9,24.1c10.1,6.6,8.9-5.8,14.7-9.2

	L1830.1,1308.4z M1783.6,1215.5c16.2,5.3,18.6,3.9,24.2-14.5C1787.6,1194.7,1786.2,1195.5,1783.6,1215.5z M2532.8,1612.3

	c-2.8,10.3-1.4,17.6,10.4,19.9c4.9,1,9.5,3.9,14.9,6.2C2556.2,1621.1,2556.2,1621.1,2532.8,1612.3L2532.8,1612.3z M774.7,1256

	c18.8,7.4,37.7,14.3,56.7,21.2c1.7,0.6,3.9-0.1,6.6-2.4l-66.3-28.7l-2.7,2.9C770.9,1251.4,772.3,1255,774.7,1256z M2702.5,1707.9

	c4.3-16.3,0.5-21.1-21.2-27.4C2678.4,1697.2,2689.4,1703.3,2702.5,1707.9z M3230.9,1601.2l-3.1,1.2l2.2,30.6h16.5

	C3239.9,1621.6,3241.2,1608.3,3230.9,1601.2z M1805,1292.8l-6,13.8l19.1,12.8l8.6-13.3L1805,1292.8z M2684.1,1743.4l9.2-9.8

	c-14.8-12.6-22-13.5-31.1-3.8L2684.1,1743.4z M1791.7,1302.1c14.6-11.5,9-13.5-7.4-22.9C1775.6,1290.3,1776.4,1292.8,1791.7,1302.1

	L1791.7,1302.1z M2711.5,1697.8c0,12.9,2.9,22.8,17.1,24.7C2731.6,1707.4,2728.7,1703.1,2711.5,1697.8L2711.5,1697.8z

	 M1770.7,1214.1l11.3-17.5c-15.2-3.9-15.2-3.9-21.1,15.4L1770.7,1214.1z M1780.2,1275.6l-14.5-11.6c-8.3,13.6-8.3,13.6,5.3,24

	L1780.2,1275.6z M2517.6,1652.4l-1.8,4.4l34.9,14.8l1.7-4.5L2517.6,1652.4z M2510.7,1654l1.4-3.5l-34.6-14.2l-0.3,3L2510.7,1654z

	 M2749.5,1731.9c2.8-10-2.9-14.4-11.4-17.8C2735.5,1724.4,2739.1,1730.1,2749.5,1731.9L2749.5,1731.9z M1759.8,1193.7

	c-11.5-0.6-14.6,3.6-12.1,17.9L1759.8,1193.7L1759.8,1193.7z M1256.7,1480l-1.7,3.4l31.5,15.9l1.8-3.6L1256.7,1480z M2159.6,1706.4

	c2.2,12.4-2.6,25,2.8,37.3v-37.3L2159.6,1706.4L2159.6,1706.4z M1758.8,1262.8l-16.4-1.5l9.7,14.3L1758.8,1262.8z"/>

</svg>

