<svg xmlns="http://www.w3.org/2000/svg" viewBox="0 0 120.78 167.47"><defs><style>.cls-1{fill:#f96d00;}.cls-2{fill:#f2f2f2;}.cls-3{fill:#222831;}</style></defs><title>medaille</title><g id="Calque_2" data-name="Calque 2"><g id="elementsGraphiques"><g id="medaille"><path class="cls-1" d="M99.41,89.46a52,52,0,1,0-76,0L2,152.44l27.79-11.32,14.55,26.35L61.45,117l17,50.49L93,141.12l27.79,11.32Z"/><path class="cls-2" d="M61.39,100a46,46,0,1,0-46-46A46,46,0,0,0,61.39,100Z"/><path class="cls-1" d="M71.64,62.6V31.22H54.84l-.28.55a6.62,6.62,0,0,1-1.81,1.9A27.33,27.33,0,0,1,49.32,36a33.32,33.32,0,0,1-3.8,1.9,7.5,7.5,0,0,1-2.66.74h-1V54.27h1a15.09,15.09,0,0,0,3.61-.5,26,26,0,0,0,3.87-1.3,27.38,27.38,0,0,0,3.45-1.75l.67-.43V62.6H43.35V77.9H81.58V62.6Z"/><path class="cls-3" d="M44.47,51.77a26,26,0,0,0,3.87-1.3,27.38,27.38,0,0,0,3.45-1.75l.67-.43V60.6H41.35V75.9H79.58V60.6H69.64V29.22H52.84l-.28.55a6.62,6.62,0,0,1-1.81,1.9A27.33,27.33,0,0,1,47.32,34a33.32,33.32,0,0,1-3.8,1.9,7.5,7.5,0,0,1-2.66.74h-1V52.27h1A15.09,15.09,0,0,0,44.47,51.77ZM41.86,38.55a12.83,12.83,0,0,0,2.44-.79,35.46,35.46,0,0,0,4-2A29.49,29.49,0,0,0,52,33.23a10.52,10.52,0,0,0,2-2H67.64V62.6h9.94V73.9H43.35V62.6H54.46V43l-1.8,2.4A6.73,6.73,0,0,1,50.75,47a25.43,25.43,0,0,1-3.2,1.62A24,24,0,0,1,44,49.83a15.2,15.2,0,0,1-2.12.39Z"/><path class="cls-3" d="M97.41,87.46a52,52,0,1,0-76,0L0,150.44l27.79-11.32,14.55,26.35L59.45,115l17,50.49L91,139.12l27.79,11.32Zm-1.56,1.61,19.64,57.87-10-4.07L89,94.73A52.25,52.25,0,0,0,95.84,89.07ZM59.39,2a50,50,0,1,1-50,50A50.06,50.06,0,0,1,59.39,2ZM22.94,89.07a52.24,52.24,0,0,0,6.82,5.65l-17.6,48.61L3.3,146.94Zm-8.29,53.25L31.47,95.86A51.67,51.67,0,0,0,49.22,103L34.86,147.78,28.69,136.6ZM41.9,160.53l-5.71-10.34,15-46.84a52.36,52.36,0,0,0,8.19.65c.57,0,1.12,0,1.69,0Zm18.61-48.67,2.72-8c1.47-.11,2.92-.26,4.35-.49l15,46.84-5.71,10.34ZM90.09,136.6l-6.18,11.19L69.56,103a51.67,51.67,0,0,0,17.73-7.13l15.73,46Z"/><path class="cls-3" d="M59.39,98a46,46,0,1,0-46-46A46,46,0,0,0,59.39,98Zm0-90a44,44,0,1,1-44,44A44,44,0,0,1,59.39,8Z"/></g></g></g></svg>