<svg xmlns="http://www.w3.org/2000/svg" viewBox="0 0 217 169.58"><defs><style>.cls-1{fill:#8097b7;}.cls-2{fill:#ebf4ff;}.cls-3{fill:#fff;}.cls-4{fill:#556477;}.cls-5{fill:#768ba5;}.cls-6{fill:#222831;}</style></defs><title>ordi</title><g id="Calque_2" data-name="Calque 2"><g id="elementsGraphiques"><path class="cls-1" d="M217,11.86V127.54a9,9,0,0,1-9,9H123.59V161h35.93a8.63,8.63,0,0,1,8.62,8.62h-115A8.63,8.63,0,0,1,61.79,161H96.28V136.52H11.86a9,9,0,0,1-9-9V11.86a9,9,0,0,1,9-9H208A9,9,0,0,1,217,11.86Z"/><rect class="cls-2" x="14.37" y="14.37" width="191.13" height="110.66" rx="8.98" ry="8.98"/><path class="cls-3" d="M205.5,23.35V35.11L32.89,125H23.35a9,9,0,0,1-9-9v-7.3L195.54,14.37h1A9,9,0,0,1,205.5,23.35Z"/><path class="cls-4" d="M168.14,169.58h-115A8.63,8.63,0,0,1,61.79,161h97.72A8.63,8.63,0,0,1,168.14,169.58Z"/><rect class="cls-5" x="96.28" y="136.52" width="27.3" height="24.43"/><path class="cls-6" d="M205.14,0H9A9,9,0,0,0,0,9V124.67a9,9,0,0,0,9,9H92v23H58.92A10.07,10.07,0,0,0,48.86,166.7v1.44H166.7V166.7a10.07,10.07,0,0,0-10.06-10.06H122.15v-23h83a9,9,0,0,0,9-9V9A9,9,0,0,0,205.14,0Zm-48.5,159.52a7.2,7.2,0,0,1,7,5.75H51.88a7.2,7.2,0,0,1,7-5.75h97.72Zm-37.36-2.87H94.85v-23h24.43Zm92-32a6.11,6.11,0,0,1-6.11,6.11H9a6.11,6.11,0,0,1-6.11-6.11V9A6.11,6.11,0,0,1,9,2.87H205.14A6.11,6.11,0,0,1,211.25,9Z"/><path class="cls-6" d="M193.65,11.5H20.48a9,9,0,0,0-9,9v92.69a9,9,0,0,0,9,9H193.65a9,9,0,0,0,9-9V20.48A9,9,0,0,0,193.65,11.5Zm6.11,101.67a6.11,6.11,0,0,1-6.11,6.11H20.48a6.11,6.11,0,0,1-6.11-6.11V20.48a6.11,6.11,0,0,1,6.11-6.11H193.65a6.11,6.11,0,0,1,6.11,6.11Z"/></g></g></svg>